<?xml version="1.0" standalone="no"?>
<!DOCTYPE svg PUBLIC "-//W3C//DTD SVG 20010904//EN"
 "http://www.w3.org/TR/2001/REC-SVG-20010904/DTD/svg10.dtd">
<svg version="1.0" xmlns="http://www.w3.org/2000/svg"
 width="700.000000pt" height="700.000000pt" viewBox="0 0 700.000000 700.000000"
 preserveAspectRatio="xMidYMid meet">
<metadata>
Created by potrace 1.11, written by Peter Selinger 2001-2013
</metadata>
<g transform="translate(0.000000,700.000000) scale(0.100000,-0.100000)"
fill="#000000" stroke="none">
<path d="M770 6976 c-111 -30 -157 -48 -238 -91 -240 -127 -427 -360 -503
-630 -29 -101 -37 -370 -14 -475 72 -333 311 -618 620 -740 116 -46 115 -46
105 -10 -41 144 -28 484 20 510 56 30 288 45 402 26 151 -24 300 -81 417 -157
l33 -23 -25 40 c-113 181 -168 377 -161 584 8 258 101 482 281 678 l23 25 -33
29 c-106 96 -258 180 -403 224 -79 24 -108 27 -264 30 -157 2 -184 0 -260 -20z"/>
<path d="M2668 6995 c-1 -1 -22 -5 -45 -9 -267 -36 -533 -207 -690 -443 -51
-77 -111 -203 -126 -264 l-7 -25 88 16 c79 15 285 20 332 7 8 -2 37 -7 63 -12
28 -4 51 -14 56 -24 18 -35 34 -158 33 -264 0 -200 -59 -394 -171 -567 -18
-27 -22 -29 64 26 71 45 216 100 315 120 85 17 246 23 330 12 114 -15 289 -72
358 -116 28 -18 28 -14 -7 55 -77 154 -111 313 -106 498 4 144 6 163 41 281
42 145 139 319 235 420 l30 31 -37 33 c-155 136 -383 219 -621 225 -72 2 -133
2 -135 0z"/>
<path d="M4025 6979 c-99 -20 -184 -49 -260 -87 -54 -27 -166 -99 -204 -132
l-23 -20 34 -38 c132 -146 227 -343 262 -543 14 -82 15 -289 2 -354 -4 -16 -9
-43 -12 -60 -30 -149 -133 -348 -253 -484 -16 -19 -28 -38 -25 -42 13 -22 174
-125 246 -159 69 -31 158 -64 158 -57 0 1 -4 17 -10 36 -32 114 -32 338 1 463
8 32 15 39 47 47 96 26 245 34 357 19 144 -18 338 -89 439 -161 l31 -22 -16
25 c-173 268 -219 582 -127 878 39 128 119 268 210 367 l49 54 -41 38 c-105
96 -266 180 -420 220 -130 34 -317 39 -445 12z"/>
<path d="M5855 6993 c-56 -8 -197 -43 -234 -59 -255 -110 -426 -262 -539 -479
-26 -50 -82 -186 -82 -199 0 -2 17 0 38 4 20 5 51 12 67 15 50 10 250 14 291
5 22 -4 60 -11 86 -15 31 -4 51 -13 58 -24 31 -58 45 -281 26 -411 -18 -122
-89 -307 -156 -407 l-22 -33 69 40 c250 146 536 183 808 105 145 -42 303 -131
407 -228 l36 -35 39 42 c263 280 327 755 150 1111 -140 283 -396 485 -701 551
-68 15 -277 25 -341 17z"/>
<path d="M3433 6582 c-99 -123 -180 -309 -199 -459 -10 -73 -10 -220 0 -293
18 -132 109 -338 196 -444 l37 -45 25 27 c65 70 142 211 176 324 89 287 40
605 -128 842 -34 48 -66 86 -72 86 -3 0 -18 -17 -35 -38z"/>
<path d="M1780 6147 c-3 -2 -25 -7 -50 -11 -25 -3 -54 -8 -65 -10 -11 -2 -23
-5 -27 -5 -20 -2 -42 -149 -42 -281 0 -176 27 -288 111 -459 43 -87 67 -118
154 -198 l34 -31 58 47 c199 165 303 569 226 877 -9 34 -16 44 -38 49 -14 3
-37 8 -51 11 -33 8 -304 17 -310 11z"/>
<path d="M4901 6133 c-36 -7 -66 -15 -68 -17 -13 -12 -35 -168 -36 -251 -2
-180 28 -315 103 -466 53 -108 81 -145 146 -199 l58 -48 54 47 c116 100 213
307 240 516 16 117 0 350 -27 393 -22 37 -337 53 -470 25z"/>
<path d="M1068 5405 c-2 -2 -26 -5 -53 -8 -28 -3 -57 -8 -65 -11 -8 -2 -27 -7
-42 -10 -23 -5 -28 -14 -38 -59 -28 -137 -28 -292 1 -434 10 -51 11 -51 57
-62 270 -63 567 -7 800 151 23 16 42 32 42 36 0 4 18 26 40 49 l39 42 -51 61
c-29 33 -65 69 -82 79 -184 113 -339 160 -538 166 -59 1 -108 1 -110 0z"/>
<path d="M5758 5405 c-2 -2 -24 -5 -50 -8 -191 -23 -407 -123 -505 -235 l-52
-59 39 -44 c22 -24 40 -47 40 -51 0 -12 87 -68 168 -108 177 -88 388 -122 591
-95 30 4 64 10 75 15 22 8 31 10 45 10 10 0 21 47 36 147 16 108 -6 369 -32
394 -5 4 -26 10 -48 13 -22 3 -51 8 -65 11 -25 6 -237 14 -242 10z"/>
<path d="M6267 5137 c23 -106 26 -242 9 -357 -11 -70 -21 -109 -32 -117 -38
-28 -266 -45 -393 -30 -69 9 -162 32 -231 59 -64 24 -197 95 -205 109 -4 5
-10 9 -15 9 -6 0 7 -28 28 -62 67 -111 113 -237 138 -373 10 -56 11 -220 2
-288 -13 -94 -52 -225 -92 -306 l-34 -69 85 40 c136 64 254 90 418 93 90 2
166 -2 213 -11 199 -38 381 -129 535 -268 l39 -34 28 31 c88 101 169 261 210
412 31 114 35 317 10 441 -55 269 -201 488 -428 645 -70 49 -212 118 -273 132
l-26 7 14 -63z"/>
<path d="M258 4832 c-106 -131 -191 -310 -214 -447 -2 -16 -8 -52 -12 -80 -12
-77 -6 -231 13 -325 30 -148 94 -290 186 -412 l51 -68 56 49 c114 97 203 149
342 199 90 32 113 38 176 47 21 4 50 8 64 11 36 7 207 5 260 -2 88 -12 229
-53 305 -88 84 -39 220 -127 272 -176 18 -16 36 -30 42 -30 13 0 95 111 133
180 32 57 88 193 88 211 0 7 -10 9 -27 4 -123 -31 -304 -36 -423 -11 -8 1 -31
6 -51 10 -34 7 -37 11 -49 64 -30 131 -27 328 6 457 24 91 69 202 113 278 22
37 38 67 36 67 -3 0 -28 -15 -57 -33 -160 -100 -323 -145 -530 -146 -256 0
-487 89 -683 263 -22 20 -42 36 -45 36 -3 0 -26 -26 -52 -58z"/>
<path d="M3355 4829 c-105 -14 -132 -19 -207 -38 -443 -115 -809 -465 -943
-904 -14 -48 -29 -100 -31 -115 -3 -15 -6 -32 -9 -39 -17 -48 -24 -276 -12
-393 31 -300 166 -581 387 -800 263 -262 574 -393 940 -394 163 -1 212 4 332
34 455 112 819 452 962 895 47 148 60 237 61 415 0 188 -10 252 -66 424 -68
207 -161 358 -324 522 -210 212 -449 335 -743 384 -84 14 -274 19 -347 9z"/>
<path d="M950 3742 c-195 -15 -426 -108 -554 -224 -24 -22 -17 -32 72 -91 130
-87 254 -137 403 -161 72 -12 237 -14 289 -3 14 3 49 10 78 16 112 22 289 108
375 181 20 18 37 38 37 44 -1 14 -97 84 -170 124 -54 29 -177 77 -223 86 -127
26 -223 35 -307 28z"/>
<path d="M5878 3745 c-2 -2 -23 -6 -48 -9 -142 -19 -341 -103 -428 -181 -29
-26 -52 -51 -52 -56 0 -18 113 -97 203 -142 308 -153 661 -131 947 60 67 44
110 78 110 85 0 3 -35 30 -77 60 -121 86 -267 148 -408 173 -39 7 -241 15
-247 10z"/>
<path d="M228 3458 c-217 -265 -284 -640 -172 -968 96 -280 311 -507 588 -618
101 -41 107 -41 96 0 -33 124 -33 344 0 466 10 39 10 39 87 54 244 48 524 -5
735 -138 21 -13 40 -24 43 -24 2 0 -13 27 -35 61 -61 95 -121 263 -137 384 -9
66 -8 215 1 287 11 86 43 194 87 287 21 46 39 85 39 86 0 2 -24 -10 -53 -26
-100 -54 -231 -95 -362 -114 -52 -7 -219 -7 -270 0 -209 31 -426 131 -566 262
l-46 43 -35 -42z"/>
<path d="M6694 3434 c-260 -233 -597 -329 -919 -263 -198 40 -379 133 -523
266 l-27 25 -23 -29 c-41 -50 -98 -137 -125 -190 -34 -66 -77 -180 -71 -186 3
-3 22 -1 42 4 167 41 482 22 496 -29 29 -107 38 -258 23 -387 -14 -124 -73
-286 -147 -406 -16 -27 -26 -49 -20 -49 5 0 11 4 15 9 10 18 149 88 224 115
122 44 190 56 324 60 249 6 489 -81 691 -253 69 -58 56 -63 144 52 89 116 165
295 189 447 5 25 8 104 7 175 -1 233 -70 429 -217 618 l-43 56 -40 -35z"/>
<path d="M1088 2205 c-2 -2 -29 -5 -60 -9 -32 -3 -77 -11 -102 -17 -47 -12
-48 -14 -71 -154 -7 -42 -7 -202 0 -250 20 -134 24 -144 64 -155 129 -34 335
-34 476 1 154 39 345 138 387 201 9 13 27 35 41 50 l25 26 -39 44 c-21 24 -39
46 -39 50 -1 26 -209 136 -315 167 -67 20 -84 24 -165 37 -34 6 -198 13 -202
9z"/>
<path d="M5679 2189 c-115 -19 -221 -54 -307 -101 -71 -39 -142 -87 -142 -96
0 -4 -16 -24 -35 -45 -19 -21 -35 -44 -35 -50 0 -7 29 -42 64 -79 101 -103
280 -184 474 -213 130 -20 298 -11 403 21 15 4 27 44 44 149 13 77 5 237 -16
341 -10 50 -12 52 -52 62 -120 30 -260 34 -398 11z"/>
<path d="M3056 1979 c2 -10 6 -29 9 -41 27 -120 25 -328 -5 -439 -9 -33 -16
-40 -48 -48 -121 -32 -284 -35 -436 -7 -89 16 -253 81 -321 126 -70 47 -72 47
-53 18 256 -391 221 -910 -84 -1243 l-49 -54 23 -21 c90 -85 232 -170 358
-214 231 -80 523 -67 744 33 71 32 223 128 246 155 10 13 5 24 -35 68 -135
149 -237 377 -260 578 -7 62 -8 215 -1 245 2 11 7 40 10 65 22 167 112 359
239 512 l39 48 -39 47 c-21 27 -45 54 -53 60 -30 25 -186 101 -237 116 -50 15
-51 15 -47 -4z"/>
<path d="M6259 1991 c-1 -3 0 -10 1 -16 30 -146 34 -310 10 -438 -14 -76 -17
-79 -104 -97 -106 -22 -256 -20 -399 5 -88 16 -254 86 -347 147 l-35 23 23
-32 c12 -17 22 -35 22 -39 0 -4 6 -15 14 -23 7 -9 29 -54 49 -101 157 -370 84
-798 -188 -1094 l-35 -38 32 -30 c60 -53 193 -136 273 -171 68 -29 145 -53
239 -73 56 -13 249 -11 330 2 404 66 720 360 826 769 33 129 33 341 0 470 -76
297 -261 533 -525 668 -74 39 -184 79 -186 68z"/>
<path d="M1863 1818 c-79 -67 -113 -111 -161 -211 -79 -161 -107 -285 -106
-467 0 -88 8 -159 24 -221 10 -34 13 -37 73 -50 82 -18 332 -18 414 0 l62 13
10 47 c61 259 11 549 -133 771 -25 39 -49 70 -53 70 -5 0 -27 18 -50 40 l-43
40 -37 -32z"/>
<path d="M5090 1843 c0 -5 -24 -27 -53 -51 -106 -84 -210 -310 -234 -509 -11
-92 -6 -241 11 -322 8 -41 17 -75 18 -77 2 -1 35 -9 73 -17 81 -17 286 -20
360 -6 28 6 61 13 75 15 13 3 28 10 31 16 27 44 42 277 26 404 -21 172 -115
384 -212 477 -60 59 -95 84 -95 70z"/>
<path d="M235 1668 c-183 -230 -261 -532 -210 -819 64 -366 326 -670 680 -788
121 -40 165 -46 335 -45 217 1 379 50 549 164 127 86 228 193 304 321 34 58
107 223 107 242 0 2 -28 -3 -62 -10 -130 -29 -430 -18 -474 18 -19 15 -38 150
-38 269 0 187 51 374 146 528 l40 65 -34 -22 c-113 -74 -264 -132 -401 -154
-98 -16 -258 -14 -341 3 -31 6 -57 11 -58 10 -2 0 -37 11 -78 25 -133 45 -267
122 -353 202 -23 21 -47 42 -52 45 -6 4 -33 -21 -60 -54z"/>
<path d="M3471 1593 c-63 -87 -128 -226 -157 -338 -21 -81 -26 -125 -27 -230
-1 -168 27 -292 100 -440 41 -81 140 -218 153 -210 21 13 106 137 140 205 37
75 75 179 85 235 3 17 8 44 11 60 10 53 11 199 2 271 -21 163 -103 356 -191
449 -28 30 -56 55 -62 55 -6 0 -30 -26 -54 -57z"/>
<path d="M3817 1410 c76 -190 93 -404 48 -630 -27 -138 -131 -344 -225 -450
l-31 -35 33 -28 c53 -45 177 -115 258 -146 143 -55 317 -77 470 -58 254 31
493 170 650 378 48 65 130 210 130 231 0 3 -21 1 -47 -3 -51 -8 -281 -5 -323
5 -14 3 -49 11 -78 18 -52 11 -53 12 -67 62 -22 80 -26 113 -30 236 -5 155 22
312 76 437 l18 42 -67 -26 c-127 -49 -217 -65 -362 -66 -190 -2 -292 17 -462
88 -14 5 -12 -3 9 -55z"/>
</g>
</svg>
