<svg xmlns="http://www.w3.org/2000/svg" viewBox="0 0 31.71 30.57"><style>#seo{fill:#fff;}</style><title>Asset 4</title><g id="Layer_2" data-name="Layer 2"><g id="seo"><path d="M29.52,5.12a4.51,4.51,0,0,0-2.22.2c-.31.13-1,.8-1.63.23-.34-.31-.46-1.44-.5-1.54C24.63,2.83,23,2.87,22.79,2.14c-.14-.55.42-1.14,1.39-.74,2.14.87,2.42.89,1.89.46a3.25,3.25,0,0,0-.38-.24l-.11-.06-.11-.06A12,12,0,0,0,10.16,4.7h0l-.07.07c1.55-1.24.74.11,3.87-1.12a4.51,4.51,0,0,1,1.18-.08c3.23.84,4.7,0,4.82-.11,1.48-1,2.63-.77,2.64.1,0,.53.15,1.13-.5,1-.93-.22-1.47-1.19-1.6-.13-.1.78-1.58.85-1.34,1.34.15.32,1.56-.27,2.19-.64s1.18.33,1.22.42A3.4,3.4,0,0,0,24.54,7c1.08.43-.07,1-.7,1.35,0,0-2.63,2.93-3.57,2.71-.12,0-.41-.49-.56-.53-3-.75-1.41,3.49-.64,1.81.32-.7.27.35.28.77s.64.85.64.85.71.12.76.3l.21.13s.4-.66.94-.6a12.87,12.87,0,0,1,3.69,1.58c2.18,1.1,1.45,3.06-.6,4.14-.65.34-.6,1.78-1.37,1.24-.43-.31-1.53,2.61-1.6,3.1a12.06,12.06,0,0,0,9.44-9.32l-.09-.13s0,0,0,0a.8.8,0,0,0,0-.41.64.64,0,0,1-.06-.22c0-.1,0-.16,0-.31s.09-.13.14-.4,0-.19-.07-.33a.13.13,0,0,1,.06-.14l0,0,.13-.1.08-.09a2.26,2.26,0,0,0,0-.26A11.91,11.91,0,0,0,29.52,5.12Z"/><path d="M17.87,20.08H16.65a.53.53,0,0,1-.47-.35l-.86-2.11a.52.52,0,0,1,.08-.58l.86-.86a.37.37,0,0,0,0-.52L14.87,14.3a.37.37,0,0,0-.52,0l-.85.86a.53.53,0,0,1-.59.08l-2.11-.85a.51.51,0,0,1-.35-.47V12.69a.36.36,0,0,0-.36-.36H8.14a.37.37,0,0,0-.36.37V14a.53.53,0,0,1-.35.48l-2,.88a.5.5,0,0,1-.58-.08l-.92-.92a.37.37,0,0,0-.52,0L2,15.7a.37.37,0,0,0,0,.52l1,1a.56.56,0,0,1,.09.59l-.79,2a.53.53,0,0,1-.47.35H.37A.36.36,0,0,0,0,20.5v1.95a.37.37,0,0,0,.37.36H1.8a.54.54,0,0,1,.48.35l.82,1.95a.52.52,0,0,1-.08.58l-1,1a.37.37,0,0,0,0,.52L3.39,28.6a.37.37,0,0,0,.52,0l1-1a.53.53,0,0,1,.59-.08l2,.81a.54.54,0,0,1,.35.48V30.2a.37.37,0,0,0,.37.37h1.93a.38.38,0,0,0,.37-.37V28.81a.52.52,0,0,1,.36-.47l2-.8a.52.52,0,0,1,.59.09l1,.94a.37.37,0,0,0,.52,0l1.37-1.38a.37.37,0,0,0,0-.52l-.92-.92a.52.52,0,0,1-.08-.58l.87-2.05a.54.54,0,0,1,.48-.35h1.25a.38.38,0,0,0,.37-.37V20.45A.37.37,0,0,0,17.87,20.08ZM9.22,24.85a3.48,3.48,0,1,1,3.47-3.49A3.47,3.47,0,0,1,9.22,24.85Z"/><path d="M21.71,18.57c-.15-1-.16-.52-.88-3.44.25-.51-.55-.5-1-.87a7.53,7.53,0,0,0-1.67-1,10.69,10.69,0,0,1-1.89-1.67c-.25-.32-.07-.75-.51-.56h0c-.29.19-.72.08-1.1-1.46-.07-.27-.06-.29,0-.42.48-.65-1.13-2.69-1.48-3.11-.18-.22-.79-.05-1,0-.08,0-.26,0-.33,0s0-.12,0-.21,0,0-.11-.05,0-.1.07-.21-.64.33-.82.41-.13.13-.19.21-.11.25-.19.31.16,0,.23,0,0,.31-.16.27c0,0-.3.21-.63.39-.06,0-.06,0-.06,0s.15-.17.25-.19.09-.18,0-.2,0,0,0,0v0a.25.25,0,0,1,0-.07c0-.06-.23-.1-.38-.1s-.11-.09-.15-.25.81-.43.46-.65c0-.19-.2.07-.38,0s-.13,0-.19.08a.31.31,0,0,1-.21,0,12,12,0,0,0-1.63,4.57,2.2,2.2,0,0,1,.36,0h1.94a2.37,2.37,0,0,1,2.36,2.36v.21l.35.13.17-.17a2.37,2.37,0,0,1,3.32,0l1.38,1.37a2.37,2.37,0,0,1,0,3.35l-.14.15.13.34h.22a2.37,2.37,0,0,1,2.36,2.36v2a2.35,2.35,0,0,1-.68,1.65h.12A11.82,11.82,0,0,0,21.16,24a10,10,0,0,1,.22-1.65A16.82,16.82,0,0,0,21.71,18.57Z"/></g></g></svg>