<svg xmlns="http://www.w3.org/2000/svg" viewBox="0 0 22.84 30.71"><style>#money{fill:#fff;}</style><title>banking</title><g id="Layer_2" data-name="Layer 2"><g id="money"><path d="M17.22,4.86V5.94a2.08,2.08,0,0,1-.19.9c.32.28,1,.9,1.33,1.22a2.58,2.58,0,0,0,.75-4.64c0,.06,0,.06,0,0a3.62,3.62,0,0,0-.39-1.34A4.22,4.22,0,0,0,13,.53a12.29,12.29,0,0,0-2.9,2.19h5A2.13,2.13,0,0,1,17.22,4.86Z"/><path d="M15.41,8.06a3,3,0,0,1-.31,0H8.68a2.23,2.23,0,0,1-.93-.22C3.24,10.46,0,17.33,0,22.36a8.75,8.75,0,0,0,.57,3.26c1.51,3.77,5.79,5.09,10.85,5.09s9.34-1.32,10.84-5.09a8.6,8.6,0,0,0,.58-3.27C22.84,17.45,19.75,10.79,15.41,8.06Zm-2.29,16.4a1.29,1.29,0,0,0-.83,1.39v.07c0,.92-.26.95-.93.95-.87,0-.94-.14-.94-.9a1.13,1.13,0,0,0-.93-1.06l-1.44-.33a1.08,1.08,0,0,1-.65-1.25l.1-.41a.78.78,0,0,1,1.1-.54,6.46,6.46,0,0,0,2.3.46c1.11,0,1.86-.43,1.86-1.18s-.61-1.18-2-1.66c-2-.69-3.42-1.64-3.42-3.5a3.26,3.26,0,0,1,2.4-3,1.32,1.32,0,0,0,.83-1.34c0-.77.42-.91.93-.91s.93,0,.93.84a1.08,1.08,0,0,0,.93,1,4.31,4.31,0,0,1,1.08.19,1,1,0,0,1,.53,1.21l-.09.34a.75.75,0,0,1-1.09.5,4.8,4.8,0,0,0-1.9-.26c-1.24,0-1.64.55-1.64,1.09s.67,1,2.31,1.62c2.27.8,3.16,1.85,3.16,3.59A3.22,3.22,0,0,1,13.12,24.46Z"/><rect x="7.84" y="4" width="8" height="3" rx="1" ry="1"/></g></g></svg>