<svg xmlns="http://www.w3.org/2000/svg" viewBox="0 0 73.08 61.59"><defs><style>.cls-1{fill:#fff;}</style></defs><title>Asset 3</title><g id="Layer_2" data-name="Layer 2"><g id="Layer_1-2" data-name="Layer 1"><rect class="cls-1" x="1" width="10" height="4" rx="2" ry="2"/><rect class="cls-1" x="16.25" width="10" height="4" rx="2" ry="2"/><rect class="cls-1" x="31.5" width="10" height="4" rx="2" ry="2"/><rect class="cls-1" x="46.75" width="10" height="4" rx="2" ry="2"/><rect class="cls-1" x="62" width="10" height="4" rx="2" ry="2"/><rect class="cls-1" x="1" y="36.73" width="10" height="2" rx="1" ry="1"/><rect class="cls-1" x="16.25" y="36.73" width="10" height="2" rx="1" ry="1"/><rect class="cls-1" x="31.5" y="36.73" width="10" height="2" rx="1" ry="1"/><rect class="cls-1" x="46.75" y="36.73" width="10" height="2" rx="1" ry="1"/><rect class="cls-1" x="62" y="36.73" width="10" height="2" rx="1" ry="1"/><path class="cls-1" d="M66.1,19.49A2.49,2.49,0,0,1,63.6,22H3.5a2.5,2.5,0,0,1,0-5H63.6A2.49,2.49,0,0,1,66.1,19.49Z"/><path class="cls-1" d="M73.08,19.86l-12,7.5,1-5.37H63.6a2.5,2.5,0,0,0,0-5H62.08l-1-4.63Z"/><path class="cls-1" d="M6,61.59a6,6,0,1,1,6-6A6,6,0,0,1,6,61.59Zm0-10a4,4,0,1,0,4,4A4,4,0,0,0,6,51.59Z"/><path class="cls-1" d="M26.31,61.59a6,6,0,1,1,6-6A6,6,0,0,1,26.31,61.59Zm0-10a4,4,0,1,0,4,4A4,4,0,0,0,26.31,51.59Z"/><path class="cls-1" d="M46.62,61.59a6,6,0,1,1,6-6A6,6,0,0,1,46.62,61.59Zm0-10a4,4,0,1,0,4,4A4,4,0,0,0,46.62,51.59Z"/><path class="cls-1" d="M66.92,61.59a6,6,0,1,1,6-6A6,6,0,0,1,66.92,61.59Zm0-10a4,4,0,1,0,4,4A4,4,0,0,0,66.92,51.59Z"/><rect class="cls-1" x="31.31" y="54.59" width="10.31" height="2"/><rect class="cls-1" x="51.62" y="54.59" width="10.31" height="2"/><rect class="cls-1" x="11" y="54.59" width="10.3" height="2"/></g></g></svg>