<svg xmlns="http://www.w3.org/2000/svg" viewBox="0 0 47.5 40"><defs><style>.cls-1{fill:#fff;}</style></defs><title>Asset 2</title><g id="Layer_2" data-name="Layer 2"><g id="unloack"><path class="cls-1" d="M44.61,17.06A3.08,3.08,0,0,0,44,17a2.47,2.47,0,0,0-.39,0,2.88,2.88,0,0,0-1.16.41l-11.37-13h0A2,2,0,1,0,28.5,2.5a2,2,0,0,0,.27,1h-10A2,2,0,1,0,16,4.23l.15.08,0,0h0L16,4.48,4.87,17.33a3,3,0,1,0,0,5.34L16,35.52l.12.14,0,0h0l-.13.07a2,2,0,1,0,2.73.73h10a2,2,0,1,0,3.73,1,1.89,1.89,0,0,0-.31-1,.46.46,0,0,0-.09-.18,1.42,1.42,0,0,0-.45-.43,1.59,1.59,0,0,0-.52-.26L42,22.23a2.87,2.87,0,0,0,1.6.74A2.47,2.47,0,0,0,44,23a3.08,3.08,0,0,0,.61-.06,3,3,0,0,0,0-5.88ZM31.14,6,41.69,18.09l0,0a2.93,2.93,0,0,0-.61,1.38H32.43a2,2,0,0,0-1.35-1.41V5.91ZM30.08,20.9a1,1,0,0,1-.36-.27,1,1,0,0,1,.36-1.53l.17-.07a1,1,0,0,1,.25,0,1,1,0,0,1,.58.19.92.92,0,0,1,.28.31,1,1,0,0,1,0,1,.92.92,0,0,1-.28.31,1,1,0,0,1-.58.19A.87.87,0,0,1,30.08,20.9ZM17.5,34v-12a2,2,0,0,0,1.43-1.43h9.61ZM17.25,19a1,1,0,0,1,.61.46,1,1,0,0,1,0,1,.9.9,0,0,1-.5.42A.73.73,0,0,1,17,21a.94.94,0,0,1-.5-.14.89.89,0,0,1-.36-.36,1,1,0,0,1,0-1,.89.89,0,0,1,.36-.36A.94.94,0,0,1,17,19,.69.69,0,0,1,17.25,19Zm11.32.46H18.93a2,2,0,0,0-1.43-1.43V5.91l5.41,6.21.66.76,5.25,6A2.06,2.06,0,0,0,28.57,19.5Zm1.93-18a1,1,0,1,1-1,1A1,1,0,0,1,30.5,1.5Zm-1,3h.58V18.05H30a1.7,1.7,0,0,0-.46.18l-5.33-6.12-.66-.77-6-6.85ZM16,2.5a1,1,0,1,1,1,1A1,1,0,0,1,16,2.5ZM16,6l.5-.58V18.06a2,2,0,0,0-.5.21,2,2,0,0,0-.93,1.23H6.45a3,3,0,0,0-.78-1.57ZM4.18,21.88A1.91,1.91,0,0,1,3.5,22a2,2,0,0,1,0-4,1.91,1.91,0,0,1,.68.12A2,2,0,0,1,5,18.7a1.87,1.87,0,0,1,.42.8,1.82,1.82,0,0,1,0,1,1.87,1.87,0,0,1-.42.8A2,2,0,0,1,4.18,21.88ZM16,34,5.67,22.07a3,3,0,0,0,.78-1.57h8.62A2,2,0,0,0,16,21.73a2,2,0,0,0,.5.21V34.57Zm1,4.51a1,1,0,1,1,1-1A1,1,0,0,1,17,38.5Zm.56-3L29.08,21.4a2,2,0,0,0,1,.55V35.5Zm11.49.64a.23.23,0,0,1,.07-.07A.23.23,0,0,0,29.05,36.14Zm.42-.34-.06,0M30.5,38.5a1,1,0,1,1,1-1A1,1,0,0,1,30.5,38.5ZM31.1,34v-12h0v0a2,2,0,0,0,1.35-1.41h8.62a2.94,2.94,0,0,0,.29.88h0l0,.05L31.16,33.91ZM44.59,21.91a.67.67,0,0,1-.19.05l-.15,0A.9.9,0,0,1,44,22l-.27,0-.14,0h0a1.94,1.94,0,0,1-1-.55h0a1.73,1.73,0,0,1-.51-.9h0v-1h0a2.23,2.23,0,0,1,.27-.61v0a2,2,0,0,1,.32-.38.59.59,0,0,1,.2-.16l.22-.13h0a1.86,1.86,0,0,1,.53-.19h0l.14,0L44,18h.24a1.13,1.13,0,0,1,.18,0,.67.67,0,0,1,.19.05,2,2,0,0,1,0,3.82Z"/><path class="cls-1" d="M30.5,40A2.5,2.5,0,0,1,28,37.5a2.73,2.73,0,0,1,.05-.5h-8.6a2.73,2.73,0,0,1,.05.5,2.5,2.5,0,0,1-5,0,2.46,2.46,0,0,1,.9-1.91L4.73,23.28a3.66,3.66,0,0,1-1.23.22,3.5,3.5,0,0,1,0-7,3.66,3.66,0,0,1,1.23.22L15.4,4.41a2.46,2.46,0,0,1-.9-1.91,2.5,2.5,0,0,1,5,0,2.73,2.73,0,0,1-.05.5h8.6A2.73,2.73,0,0,1,28,2.5,2.5,2.5,0,1,1,32.5,4a2.61,2.61,0,0,1-.56.54l-.06,0L42.57,16.81a3.21,3.21,0,0,1,1-.28,3.54,3.54,0,0,1,1.16,0h0a3.5,3.5,0,0,1,0,6.86,3.36,3.36,0,0,1-1.18,0,3.28,3.28,0,0,1-1.44-.54L31.91,35.44l0,0a1.93,1.93,0,0,1,.55.52,1.11,1.11,0,0,1,.15.28A2.47,2.47,0,0,1,33,37.5,2.5,2.5,0,0,1,30.5,40ZM29,37.5a1.5,1.5,0,0,0,3,0,1.5,1.5,0,0,1-3,0Zm-13.5,0a1.5,1.5,0,0,0,3,0,1.5,1.5,0,0,1-3,0Zm15-.5a.5.5,0,1,0,.5.5A.5.5,0,0,0,30.5,37ZM17,37a.5.5,0,1,0,.5.5A.5.5,0,0,0,17,37Zm-1.5.5Zm13.5,0Zm-10.5,0Zm-3,0Zm.3-.88a1.44,1.44,0,0,0-.3.88A1.42,1.42,0,0,1,15.8,36.61Zm13.62-.22-.19.31a1.56,1.56,0,0,1,.23-.28ZM17.07,36a1.54,1.54,0,0,1,1.2.7l-.41-.7H28.91l.14.14L28.92,36h0l-.23-.21,0,.05-.06-.05.23.21Zm14.35.32a1.38,1.38,0,0,1,.29.3h0A.93.93,0,0,0,31.42,36.32Zm-2,.06,0,0a1.56,1.56,0,0,1,.2-.16h0l.06,0-.11-.17,0,0,0-.09h0l0-.09,0,.09h0l0,.09Zm.2-.33.1.17A1.48,1.48,0,0,1,30.5,36h-.86Zm.88,0a1.63,1.63,0,0,1,.31,0L30.58,36v0Zm-14-.63.25.29h0Zm14-12.74V35.5l9.06-11.16-9,11V22.62ZM16.17,21.25l.08.05a1.61,1.61,0,0,0,.38.16l.37.1V35.4l5.39-6.61L17,35.38V21.54l.23-.06a1.54,1.54,0,0,1-1-.2ZM18.61,35h11V22.32a2.49,2.49,0,0,1-.43-.22Zm-6.9-5.19,4.42,5.1-.51-.59ZM6.33,22.06,16,33.23V22.29l-.26-.13a2.58,2.58,0,0,1-1-1.16H6.85A3.74,3.74,0,0,1,6.33,22.06Zm25.27.18V32.59l9.19-11.22a2.35,2.35,0,0,1-.14-.37H32.79A2.52,2.52,0,0,1,31.6,22.24ZM18,22.29V32.58L27.48,21H19.29A2.57,2.57,0,0,1,18,22.29ZM1,20a2.5,2.5,0,0,0,2.5,2.5A2.5,2.5,0,0,1,1,20Zm43.32,2.48h-.07l.26,0h0ZM42,21.5l.39.36a2.35,2.35,0,0,0,.93.53,2.5,2.5,0,0,1-1-.63l-.31-.32v0l-.13.22Zm2.82.88h0a1.94,1.94,0,0,0,.36-.15A1.92,1.92,0,0,1,44.77,22.38Zm-40.42,0-.1,0a1.68,1.68,0,0,0,.39-.16L5,22.05H5l.31-.33a1.94,1.94,0,0,0,.32-.42,2.52,2.52,0,0,1-.24.33A2.44,2.44,0,0,1,4.35,22.35Zm26-.86.25.07.3-.11A1.46,1.46,0,0,1,30.33,21.49Zm13.18-.08.34.08a2.62,2.62,0,0,0,.28,0l.31-.07a1.49,1.49,0,0,0,0-2.86l-.11,0,0-.52-.06.49h-.4l-.32.08-.19.1-.15.08-.09.06a2.46,2.46,0,0,0-.3.35l-.13.2-.06.16v.86A1.24,1.24,0,0,0,43,21l.2.19A1.16,1.16,0,0,0,43.51,21.41ZM3.5,18.5a1.5,1.5,0,0,0,0,3,1.35,1.35,0,0,0,.5-.09H4a1.49,1.49,0,0,0,.93-1A1.37,1.37,0,0,0,5,20a1.23,1.23,0,0,0,0-.35A1.42,1.42,0,0,0,4.63,19,1.42,1.42,0,0,0,4,18.59,1.44,1.44,0,0,0,3.5,18.5Zm14.25,2.8a2.18,2.18,0,0,1-.23.09.05.05,0,0,1,0,0Zm12,0,.15.08-.08,0Zm12.05,0,.06.11,0,0a2.53,2.53,0,0,1-.2-.36h0a1,1,0,0,1,.07.15Zm-12.79-.61.28.28a1.31,1.31,0,0,1-.21-.36Zm-13.36.06,0,0h0ZM46.5,20a2.47,2.47,0,0,1-.08.6A2.47,2.47,0,0,0,46.5,20Zm-5,0,.06.42c0,.07,0,.14,0,.2V20Zm-11-.5h-.13A.54.54,0,0,0,30,20a.47.47,0,0,0,.11.31.37.37,0,0,0,.17.13l0,0A.5.5,0,0,0,31,20a.4.4,0,0,0-.07-.24.33.33,0,0,0-.13-.15A.47.47,0,0,0,30.5,19.5ZM17,19.5a.44.44,0,0,0-.23.06.37.37,0,0,0-.19.18.44.44,0,0,0-.08.26.4.4,0,0,0,.07.24.37.37,0,0,0,.17.18.44.44,0,0,0,.38.06.49.49,0,0,0,.3-.22A.44.44,0,0,0,17.5,20a.4.4,0,0,0-.07-.24.41.41,0,0,0-.29-.23l-.07,0Zm1.48.26a1.45,1.45,0,0,1,0,.48l.06-.24H29a1.27,1.27,0,0,1,0-.2l0,.2H18.54Zm13.5,0a1.45,1.45,0,0,1,0,.48L32,20ZM15.46,20l.06.23a1.33,1.33,0,0,1,0-.46ZM6,19.79A1.41,1.41,0,0,1,6,20a1.62,1.62,0,0,1,0,.22L6,20ZM46.5,20h0Zm0,0Zm0,0Zm0,0h0Zm0,0Zm0,0Zm0,0Zm0,0Zm0,0Zm0,0Zm0,0h0Zm0,0Zm0,0Zm0,0h0Zm0,0Zm0-.17a1,1,0,0,1,0,.17A1,1,0,0,0,46.49,19.8Zm0,0Zm0,0h0ZM41.9,18.65a2.38,2.38,0,0,0-.33.8l0-.08A2.7,2.7,0,0,1,41.9,18.65Zm-12.46.21-.19.31-.06.1a1.37,1.37,0,0,1,.51-.53l-.25.14Zm-13.73.38v0ZM32.79,19h7.86a3.74,3.74,0,0,1,.4-.89L31.58,7.25v10.5A2.54,2.54,0,0,1,32.79,19Zm-13.5,0h8.92v0L18,7.25V17.71A2.57,2.57,0,0,1,19.29,19ZM6.85,19h7.86a2.54,2.54,0,0,1,1-1.16l.25-.13V6.77L6.33,17.94A3.74,3.74,0,0,1,6.85,19Zm9.54-.37-.13.07-.1.06.11-.06A.35.35,0,0,1,16.39,18.63Zm-12.14-1,.11,0a2.41,2.41,0,0,1,1,.73,2.43,2.43,0,0,1,.24.32,2.22,2.22,0,0,0-.32-.42L5,18H5l-.35-.17A1.68,1.68,0,0,0,4.25,17.62Zm25.83.93-.27.12,0,0,.09-.05a.84.84,0,0,1,.21-.08h0Zm-12.69,0,.12,0-.13,0h0ZM17,4.57V18.44l-.37.1-.12,0a1.59,1.59,0,0,1,.75-.06L17,18.46V4.58l6.52,7.48-.33-.38ZM30.58,18.5l.25,0-.25-.08V4.05L30.86,4a2.2,2.2,0,0,1-.36,0h.08Zm12.22-.69-.09.06,0,0Zm2-.2.06,0,.15.05Zm-.19-.05h0l-.07,0h0l.07,0ZM18.7,5,29.58,17.5l0-12.5ZM16.23,5l-4.9,5.65Zm15,.93h0l.28-.25-.05-.06ZM29.64,4h.86a1.51,1.51,0,0,1-1.27-.7ZM16.76,4h1.1l.41-.7a1.54,1.54,0,0,1-1.6.66Zm15-.64-.05.07,0,0ZM15.5,2.51a1.44,1.44,0,0,0,.3.88A1.42,1.42,0,0,1,15.5,2.51ZM30.5,2a.5.5,0,1,0,.5.5A.5.5,0,0,0,30.5,2ZM17,2a.5.5,0,1,0,.5.5A.5.5,0,0,0,17,2Zm-1.5.51ZM32,2.5Zm-16.5,0ZM29,2.5Zm-10.5,0Z"/></g></g></svg>