<svg xmlns="http://www.w3.org/2000/svg" viewBox="0 0 73.07 66.66"><defs><style>.cls-1{fill:#fff;}</style></defs><title>Asset 2</title><g id="Layer_2" data-name="Layer 2"><g id="Layer_1-2" data-name="Layer 1"><path class="cls-1" d="M13.5,66.66a1.36,1.36,0,0,1-.29,0A1.5,1.5,0,0,1,12,64.87l2.62-13.3A4.85,4.85,0,0,1,12.85,51a5,5,0,0,1-2.14-2.76,6.85,6.85,0,0,1-4.23-.87c-3-1.76-4.18-5.75-3.08-9.65A6.7,6.7,0,0,1,.25,31.55a6.61,6.61,0,0,1,2.21-4.46A6.8,6.8,0,0,1,.33,19.9a6.23,6.23,0,0,1,3-3.28A8.82,8.82,0,0,1,6.72,6.38a8.34,8.34,0,0,1,7.47-.48A7.79,7.79,0,0,1,20.42.67,7.77,7.77,0,0,1,26.9,3,11.54,11.54,0,0,1,36.41.19a10.87,10.87,0,0,1,5.53,3,11.22,11.22,0,0,1,11.51-.81,10.7,10.7,0,0,1,4.71,5.23c3.28-.7,6.55.5,8,3.11A6.39,6.39,0,0,1,66.81,15a7.18,7.18,0,0,1,3.66,9.77,7.28,7.28,0,0,1,2.18,8,7,7,0,0,1-3.94,4,7.59,7.59,0,0,1-4.84.32A8,8,0,0,1,56,40a5.3,5.3,0,0,1-3.14,2.72,5.19,5.19,0,0,1-3.62-.25,5.93,5.93,0,0,1-2.2,3,6,6,0,0,1-5.17.8,9.37,9.37,0,0,1-3.53,6.28A9.72,9.72,0,0,1,30,54.22a12.07,12.07,0,0,0-8.28,11,1.5,1.5,0,1,1-3-.12A15.07,15.07,0,0,1,29.57,51.22a1.5,1.5,0,0,1,.89,0,6.89,6.89,0,0,0,6-1,6.45,6.45,0,0,0,2.32-6.3,1.5,1.5,0,0,1,2.55-1.32,3,3,0,0,0,5-3,1.5,1.5,0,0,1,2.76-1.14,2.51,2.51,0,0,0,2.85,1.37,2.42,2.42,0,0,0,1.59-1.94,1.47,1.47,0,0,1,.75-1.06,1.52,1.52,0,0,1,1.3-.08,5,5,0,0,0,6.35-2.31,1.49,1.49,0,0,1,1.95-.66,4.63,4.63,0,0,0,3.7.08,4,4,0,0,0,2.27-2.25,4.41,4.41,0,0,0-2.09-5.17,1.51,1.51,0,0,1-.45-2.21A4.62,4.62,0,0,0,68,20.16a4.67,4.67,0,0,0-3.26-2.78,1.49,1.49,0,0,1-1.1-2,4,4,0,0,0,0-3.23c-.82-1.46-3.2-2.35-5.76-1.34a1.5,1.5,0,0,1-1.21,0,1.48,1.48,0,0,1-.78-.93A8.18,8.18,0,0,0,52,5,8.57,8.57,0,0,0,42.7,6.31a1.49,1.49,0,0,1-2.13-.22,8.21,8.21,0,0,0-4.73-3c-4.53-.88-7.93,3-8,3A1.5,1.5,0,0,1,25.48,6a4.83,4.83,0,0,0-4.66-2.31,4.88,4.88,0,0,0-4.08,4.61,1.5,1.5,0,0,1-2.35,1.13,5.72,5.72,0,0,0-6.11-.45c-2.42,1.47-3.18,5-1.71,7.77a1.49,1.49,0,0,1-.9,2.14,4,4,0,0,0-2.51,2.07c-.54,1.49.35,3.78,2.72,4.88a1.5,1.5,0,0,1-.13,2.77,3.64,3.64,0,0,0,0,6.93,1.5,1.5,0,0,1,.88,2C5.27,40.71,6.27,43.71,8,44.75a4.7,4.7,0,0,0,3.56.22,1.5,1.5,0,0,1,1.92,1.55,2,2,0,0,0,.9,1.85A2,2,0,0,0,16,48.5a1.48,1.48,0,0,1,1.48.28A1.52,1.52,0,0,1,18,50.2L15,65.45A1.51,1.51,0,0,1,13.5,66.66Z"/><path class="cls-1" d="M16.47,30.41h0ZM28.72,34a3.68,3.68,0,0,1-.32.37,5.14,5.14,0,0,1-.42.38,3.88,3.88,0,0,1-.72.47,3.25,3.25,0,0,1-.43.18,4.42,4.42,0,0,0,1.09-.59,2.71,2.71,0,0,0,.41-.36,1.67,1.67,0,0,0,.28-.31l0,0a1.57,1.57,0,0,0,.19-.26Zm-3.44,1.7A4.45,4.45,0,0,1,24,35.53l.31.09.32.06.33,0h.33a4.43,4.43,0,0,0,.9-.09l.32-.08,0,0a.45.45,0,0,0,.18-.07l.1,0-.12,0A4.26,4.26,0,0,1,25.28,35.72Zm6.23-5.31h0Z"/><path class="cls-1" d="M16.47,32.41h0Zm9.6-5.23h0l.24,0A1.4,1.4,0,0,0,26.07,27.18Zm-.57-.07h-.73l-.45.08h-.05l-.41.12-.2.08-.15.07a4.37,4.37,0,0,1,1.78-.38h.28a2.73,2.73,0,0,1,.5.06,2.32,2.32,0,0,0-.47-.06Zm3.13,9.65-.36.2-.35.18.19-.09.45-.24.07,0,.17-.12Zm-.9.46.19-.08-.1,0Zm3.78-4.81h0Z"/><path class="cls-1" d="M31.49,32.54s0-.08,0-.12h0A.59.59,0,0,0,31.49,32.54Zm-.14.58a1.77,1.77,0,0,0,.08-.31.79.79,0,0,1-.06.22A.15.15,0,0,1,31.35,33.12Zm-.37,1a3.12,3.12,0,0,0,.18-.42A2.55,2.55,0,0,1,31,34,1.12,1.12,0,0,1,31,34.12ZM28.3,28.34a1.75,1.75,0,0,1,.23.24,2.09,2.09,0,0,0-.2-.22Zm-1.5,9.19.15,0,0,0a.15.15,0,0,1-.09,0ZM27,25.35l-.19-.06h0l-.29-.06.35.08Zm-.27,2h0l-.14,0Zm-1.42,8.38h0Zm.9-.09a4.58,4.58,0,0,1-.83.08A4,4,0,0,0,26.19,35.64Zm-2.63-.28a4.06,4.06,0,0,1-.51-.26A4.06,4.06,0,0,0,23.56,35.36Zm.44.17.31.09-.43-.14Zm-.12-.05-.32-.12A3,3,0,0,0,23.88,35.48Zm-.21-8.07h0l.2-.08Zm-.19,10.05.23.06-.24-.07Zm-1.24-3a3.18,3.18,0,0,0,.33.3,3.26,3.26,0,0,1-.33-.31Zm0-6.1-.08.09.09-.09Zm-.76,5.05a1.06,1.06,0,0,0,.12.2,1.55,1.55,0,0,1-.19-.36A1.11,1.11,0,0,0,21.47,33.42ZM20.08,35l0,0a1,1,0,0,1-.11-.17A.5.5,0,0,0,20.08,35Zm-1-2.46a4.46,4.46,0,0,0,.22.89,4.16,4.16,0,0,1-.12-.44A3.27,3.27,0,0,1,19.08,32.51Zm.13-2.76,0,.1,0-.05A.09.09,0,0,1,19.21,29.75Zm-.15.66h0s0-.07,0-.11S19.07,30.38,19.06,30.41Z"/><path class="cls-1" d="M31.51,30.41h0Zm-.84-2.28a1.43,1.43,0,0,0-.14-.2,2.8,2.8,0,0,1,.2.32l-.05-.1A0,0,0,0,1,30.67,28.13Zm-.27,7,.09-.14a.71.71,0,0,1-.1.14Zm-1.32-1.63s0,0,0,0-.09.16-.14.24A1,1,0,0,0,29.08,33.48Zm-.44.65a1.57,1.57,0,0,0,.19-.26l-.11.15Zm-.08,2.68.07,0h0l-.36.2C28.37,36.92,28.46,36.86,28.56,36.81Zm-.16-2.42-.07.08a1.67,1.67,0,0,0,.28-.31A2.29,2.29,0,0,1,28.4,34.39Zm-.42.38-.06.06a2.71,2.71,0,0,0,.41-.36A3.27,3.27,0,0,1,28,34.77Zm.13,2.28a.83.83,0,0,0,.16-.09l-.35.18Zm-1.38-1.58.1,0a2.36,2.36,0,0,1-.28.12A.45.45,0,0,0,26.73,35.47Zm.53-.23a2.3,2.3,0,0,1-.43.18,4.42,4.42,0,0,0,1.09-.59A3.8,3.8,0,0,1,27.26,35.24Zm0-9.8-.09,0,.25.08Zm-.25,12,.2-.07-.26.08Zm-.95-10.28.24,0a1.4,1.4,0,0,0-.28-.06Zm-.61-.08a3.42,3.42,0,0,1,.57.07,2.32,2.32,0,0,0-.47-.06Zm-.34,0h0Zm-1.4,10.42.46.1-.06,0A2.83,2.83,0,0,1,23.76,37.53Zm-.17-12.19-.11,0a2,2,0,0,1,.35-.09Zm-.31,2.26a.61.61,0,0,1,.14-.07h0Zm-1.12,9.3.05,0,.21.11a3.07,3.07,0,0,1-.36-.2Zm-.6-7.65.07-.11s0,0,0,0A.3.3,0,0,0,21.56,29.25Zm-.25.49a.32.32,0,0,0,0,.09,3.89,3.89,0,0,1,.19-.42,3.18,3.18,0,0,0-.16.32Zm-.14,3a.36.36,0,0,0,0,.09,2.35,2.35,0,0,1-.11-.35A2,2,0,0,0,21.17,32.7ZM21,31.33a4.48,4.48,0,0,1,.06-.64A4.62,4.62,0,0,0,21,31.33Zm0,0s0,.06,0,.09a3.91,3.91,0,0,0,.12,1A3.79,3.79,0,0,1,21,31.33Zm.08-.79c0,.05,0,.1,0,.15,0-.1,0-.2.06-.3A.83.83,0,0,0,21.06,30.54Zm-1-2.68.1-.14h0A1.1,1.1,0,0,0,20.08,27.86Zm-.29,6.65a.6.6,0,0,1,.06.11,1.37,1.37,0,0,0,.15.21,1,1,0,0,1-.16-.25A.18.18,0,0,1,19.79,34.51Z"/><path class="cls-1" d="M30.73,34.58l.2-.34a.61.61,0,0,1,.05-.12A1.12,1.12,0,0,0,31,34a2.55,2.55,0,0,0,.13-.29s0,0,0-.06a4.19,4.19,0,0,0,.16-.46.13.13,0,0,0,0-.06.15.15,0,0,0,0-.09.79.79,0,0,0,.06-.22c0-.07,0-.15.05-.23a.06.06,0,0,1,0,0,.59.59,0,0,1,0-.13H34.1v-2H31.51a8.82,8.82,0,0,0-.22-.92c-.05-.15-.1-.28-.16-.42a2.79,2.79,0,0,0-.24-.53,2.09,2.09,0,0,0-.16-.29,2.8,2.8,0,0,0-.2-.32l-.14-.21,1.83-1.83-1.41-1.42L29,26.3l0,0-.05,0a1.18,1.18,0,0,0-.22-.14l0,0-.35-.2c-.13-.07-.26-.14-.4-.2l-.41-.17-.25-.08a1.09,1.09,0,0,0-.24-.07l-.15,0-.35-.08-.18,0h0V22.6h-2v2.59h0l-.12,0-.29.07a2,2,0,0,0-.35.09h-.05l-.37.13-.41.17-.09,0c-.16.08-.33.16-.49.26a0,0,0,0,0,0,0,4.53,4.53,0,0,0-.46.3h0l-1.83-1.83-1.41,1.41,1.82,1.83h0l-.1.14c-.09.14-.18.27-.26.42a3.07,3.07,0,0,0-.17.31,2.55,2.55,0,0,0-.13.29,2.3,2.3,0,0,0-.18.43l-.11.33a.52.52,0,0,0,0,.11.09.09,0,0,0,0,.05l0,.05s0,0,0,0-.06.24-.08.36,0,0,0,.06,0,.07,0,.11H16.47v2h2.59v0a.24.24,0,0,0,0,.08,3.27,3.27,0,0,0,.1.45,4.16,4.16,0,0,0,.12.44l0,.09c.06.18.14.36.22.54s.11.26.18.38a.53.53,0,0,1,.06.1.18.18,0,0,0,.05.07,1,1,0,0,0,.16.25,1,1,0,0,0,.11.17.41.41,0,0,0,.07.11l-1.83,1.83,1.41,1.42,1.83-1.83.12.08.35.22a3.07,3.07,0,0,0,.36.2l.27.13a6.58,6.58,0,0,0,.78.29l.24.07h.05a2.83,2.83,0,0,0,.4.08l.06,0h.07v2.59h2V37.64l.1,0h.06l.35-.08.1,0a.15.15,0,0,0,.09,0h0l.26-.08.13,0,.12,0,.22-.09.09,0,.1,0,.35-.18.36-.2.17-.11.18-.12,1.83,1.82,1.41-1.41-1.83-1.83a.71.71,0,0,0,.1-.14A2.55,2.55,0,0,0,30.73,34.58ZM29,33.67l-.13.2a1.57,1.57,0,0,1-.19.26l0,0a1.67,1.67,0,0,1-.28.31,2.71,2.71,0,0,1-.41.36,4.16,4.16,0,0,1-1.37.71l0,0-.32.08a4.25,4.25,0,0,1-1.23.08,1.24,1.24,0,0,1-.33,0l-.32-.06a4.05,4.05,0,0,1-1.26-.52,3.11,3.11,0,0,1-.38-.25l-.1-.08a3.18,3.18,0,0,1-.33-.3h0a3.39,3.39,0,0,1-.65-.84,1.06,1.06,0,0,1-.12-.2,1.11,1.11,0,0,1-.07-.16.83.83,0,0,1-.07-.13,2.3,2.3,0,0,1-.12-.34.36.36,0,0,1,0-.09,2,2,0,0,1-.07-.26s0,0,0,0a3.91,3.91,0,0,1-.12-1,4.24,4.24,0,0,1,.09-.88.83.83,0,0,1,0-.15h0a1.94,1.94,0,0,1,.12-.39l0-.1,0-.06a.32.32,0,0,1,0-.09h0a3.18,3.18,0,0,1,.16-.32.51.51,0,0,1,.09-.16.3.3,0,0,1,0-.08s0,0,0,0a2.14,2.14,0,0,1,.13-.19,2.22,2.22,0,0,1,.19-.27,2.09,2.09,0,0,1,.2-.22l.08-.09h0a3.55,3.55,0,0,1,.68-.56l0,0a1.92,1.92,0,0,1,.31-.18l.13-.07h0l.09,0,.15-.07h0l.19-.07a2.77,2.77,0,0,1,.41-.12h.05l.45-.08h.73a3.42,3.42,0,0,1,.57.07,1.4,1.4,0,0,1,.28.06l.22.06.14,0h0a3.54,3.54,0,0,1,.79.37,1,1,0,0,1,.24.15l.09.06a1.24,1.24,0,0,1,.22.18,1.34,1.34,0,0,1,.25.23l0,0a2.09,2.09,0,0,1,.2.22,3.83,3.83,0,0,1,.57.83c.07.13.13.27.19.41s.13.38.18.57a3.73,3.73,0,0,1,.09.46s0,.06,0,.08a4,4,0,0,1,0,.49c0,.15,0,.3,0,.45a2.17,2.17,0,0,1,0,.25,1.83,1.83,0,0,1-.07.32.36.36,0,0,1,0,.1,2.78,2.78,0,0,1-.12.38c-.07.17-.14.34-.23.51s0,0,0,0A1,1,0,0,1,29,33.67Z"/><path class="cls-1" d="M46.23,24.67l.2-.34a.61.61,0,0,1,0-.12,1.12,1.12,0,0,0,.05-.13,2.55,2.55,0,0,0,.13-.29s0,0,0-.06a4.19,4.19,0,0,0,.16-.46.13.13,0,0,0,0-.06.15.15,0,0,0,0-.09.79.79,0,0,0,.06-.22c0-.07,0-.15,0-.23a.06.06,0,0,1,0,0,.59.59,0,0,1,0-.13H49.6v-2H47a8.82,8.82,0,0,0-.22-.92c0-.15-.1-.28-.16-.42a2.79,2.79,0,0,0-.24-.53,2.09,2.09,0,0,0-.16-.29A2.8,2.8,0,0,0,46,18l-.14-.21L47.72,16l-1.41-1.42-1.83,1.83,0,0,0,0a1.18,1.18,0,0,0-.22-.14l0,0-.35-.2-.4-.2L43,15.59l-.25-.08a1.09,1.09,0,0,0-.24-.07l-.15,0L42,15.32l-.18,0h0V12.69h-2v2.59h0l-.12,0-.29.07a2,2,0,0,0-.35.09h0l-.37.13-.41.17-.09,0c-.16.08-.33.16-.49.26a0,0,0,0,0,0,0,4.53,4.53,0,0,0-.46.3h0l-1.83-1.83L33.85,16l1.82,1.83h0l-.1.14c-.09.14-.18.27-.26.42a3.07,3.07,0,0,0-.17.31A2.55,2.55,0,0,0,35,19a2.3,2.3,0,0,0-.18.43c0,.11-.07.22-.11.33a.52.52,0,0,0,0,.11.09.09,0,0,0,0,.05l0,.05s0,0,0,0-.06.24-.08.36,0,0,0,.06,0,.07,0,.11H32v2h2.59v0a.24.24,0,0,0,0,.08,3.27,3.27,0,0,0,.1.45,4.16,4.16,0,0,0,.12.44l0,.09c.06.18.14.36.22.54s.11.26.18.38a.53.53,0,0,1,.06.1.18.18,0,0,0,.05.07,1,1,0,0,0,.16.25,1,1,0,0,0,.11.17.41.41,0,0,0,.07.11L33.85,27l1.41,1.42,1.83-1.83.12.08.35.22a3.07,3.07,0,0,0,.36.2l.27.13a6.58,6.58,0,0,0,.78.29l.24.07h0a2.83,2.83,0,0,0,.4.08l.06,0h.07v2.59h2V27.73l.1,0H42l.35-.08.1,0a.15.15,0,0,0,.09,0h0l.26-.08.13,0L43,27.4l.22-.09.09,0,.1,0,.35-.18.36-.2.17-.11.18-.12,1.83,1.82L47.72,27,45.89,25.2a.71.71,0,0,0,.1-.14A2.55,2.55,0,0,0,46.23,24.67Zm-1.77-.91-.13.2a1.57,1.57,0,0,1-.19.26l0,0a1.67,1.67,0,0,1-.28.31,2.71,2.71,0,0,1-.41.36,4.16,4.16,0,0,1-1.37.71l0,0-.32.08a4.25,4.25,0,0,1-1.23.08,1.24,1.24,0,0,1-.33,0l-.32-.06a4.05,4.05,0,0,1-1.26-.52,3.11,3.11,0,0,1-.38-.25l-.1-.08a3.18,3.18,0,0,1-.33-.3h0a3.39,3.39,0,0,1-.65-.84,1.06,1.06,0,0,1-.12-.2,1.11,1.11,0,0,1-.07-.16.83.83,0,0,1-.07-.13,2.3,2.3,0,0,1-.12-.34.36.36,0,0,1,0-.09,2,2,0,0,1-.07-.26s0,0,0-.05a3.91,3.91,0,0,1-.12-1,4.24,4.24,0,0,1,.09-.88.83.83,0,0,1,0-.15h0a1.94,1.94,0,0,1,.12-.39l0-.1,0-.06a.32.32,0,0,1,0-.09h0A3.18,3.18,0,0,1,37,19.5a.51.51,0,0,1,.09-.16.3.3,0,0,1,0-.08s0,0,0,0a2.14,2.14,0,0,1,.13-.19,2.22,2.22,0,0,1,.19-.27,2.09,2.09,0,0,1,.2-.22l.08-.09h0a3.55,3.55,0,0,1,.68-.56l0,0a1.92,1.92,0,0,1,.31-.18l.13-.07h0l.09,0,.15-.07h0l.19-.07a2.77,2.77,0,0,1,.41-.12h0l.45-.08H41a3.42,3.42,0,0,1,.57.07,1.4,1.4,0,0,1,.28.06l.22.06.14,0h0a3.54,3.54,0,0,1,.79.37,1,1,0,0,1,.24.15l.09.06a1.24,1.24,0,0,1,.22.18,1.34,1.34,0,0,1,.25.23l0,0a2.09,2.09,0,0,1,.2.22,3.83,3.83,0,0,1,.57.83c.07.13.13.27.19.41s.13.38.18.57a3.73,3.73,0,0,1,.09.46s0,.06,0,.08a4,4,0,0,1,0,.49c0,.15,0,.3,0,.45a2.17,2.17,0,0,1,0,.25,1.83,1.83,0,0,1-.07.32.36.36,0,0,1,0,.1,2.78,2.78,0,0,1-.12.38c-.07.17-.14.34-.23.51s0,0,0,.05A1,1,0,0,1,44.46,23.76Z"/></g></g></svg>