<svg xmlns="http://www.w3.org/2000/svg" viewBox="0 0 53.62 48.03"><defs><style>.cls-1{fill:#fff;}</style></defs><title>Asset 4</title><g id="Layer_2" data-name="Layer 2"><g id="Layer_1-2" data-name="Layer 1"><rect class="cls-1" x="12.09" y="2.1" width="5" height="42" transform="translate(16.77 -4.14) rotate(36.84)"/><polygon class="cls-1" points="17.12 0 24.73 2.9 27.93 5.29 31.78 0.16 17.12 0"/><polygon class="cls-1" points="36.06 14.19 31.14 7.69 27.93 5.29 31.78 0.16 36.06 14.19"/><path class="cls-1" d="M50.73,40.53c.65.52.89,1,.89,1.25,0,1.5-5,4.25-13.31,4.25S25,43.28,25,41.78c0-.28.25-.73.89-1.25a30.13,30.13,0,0,0,12.42,2.35,30.09,30.09,0,0,0,12.42-2.35m.13-2.33c-2.76,1.62-7.35,2.68-12.55,2.68s-9.79-1.06-12.55-2.68C24,39.22,23,40.45,23,41.78,23,45.23,29.86,48,38.31,48s15.31-2.8,15.31-6.25c0-1.33-1-2.56-2.76-3.58Z"/><path class="cls-1" d="M53.62,21.1c0,1.42-1.16,2.73-3.11,3.77-2.79,1.51-7.22,2.48-12.2,2.48s-9.41-1-12.2-2.48c-1.95-1-3.11-2.35-3.11-3.77,0-3.45,6.86-6.25,15.31-6.25S53.62,17.65,53.62,21.1Z"/><path class="cls-1" d="M50.41,30.15c.88.61,1.21,1.16,1.21,1.48s-.46,1.09-1.77,1.85c-2.56,1.5-6.88,2.4-11.54,2.4s-9-.9-11.54-2.41C25.47,32.72,25,32,25,31.63s.34-.87,1.21-1.48a30.7,30.7,0,0,0,12.1,2.2,30.63,30.63,0,0,0,12.1-2.2m.1-2.28c-2.79,1.51-7.22,2.48-12.2,2.48s-9.41-1-12.2-2.48c-1.95,1-3.11,2.35-3.11,3.76s1,2.56,2.76,3.57c2.76,1.62,7.35,2.68,12.55,2.68s9.79-1.06,12.55-2.68c1.74-1,2.76-2.25,2.76-3.57s-1.16-2.72-3.11-3.76Z"/></g></g></svg>