<svg xmlns="http://www.w3.org/2000/svg" viewBox="0 0 46 47"><defs><style>.cls-1{fill:#fff;}</style></defs><title>predictions</title><g id="Layer_2" data-name="Layer 2"><g id="group-share"><path class="cls-1" d="M23,32a9,9,0,1,1,9-9A9,9,0,0,1,23,32Zm0-16a7,7,0,1,0,7,7A7,7,0,0,0,23,16Z"/><path class="cls-1" d="M29,18a1,1,0,0,1-.71-.29,1,1,0,0,1,0-1.42l9-9a1,1,0,1,1,1.42,1.42l-9,9A1,1,0,0,1,29,18Z"/><path class="cls-1" d="M41,10a5,5,0,1,1,5-5A5,5,0,0,1,41,10Zm0-8a3,3,0,1,0,3,3A3,3,0,0,0,41,2Z"/><path class="cls-1" d="M38,47a7,7,0,1,1,7-7A7,7,0,0,1,38,47Zm0-12a5,5,0,1,0,5,5A5,5,0,0,0,38,35Z"/><path class="cls-1" d="M5,17a5,5,0,1,1,5-5A5,5,0,0,1,5,17ZM5,9a3,3,0,1,0,3,3A3,3,0,0,0,5,9Z"/><path class="cls-1" d="M9,40.5A3.5,3.5,0,1,1,12.5,37,3.5,3.5,0,0,1,9,40.5Zm0-5A1.5,1.5,0,1,0,10.5,37,1.5,1.5,0,0,0,9,35.5Z"/><path class="cls-1" d="M11,36a1,1,0,0,1-.71-.29,1,1,0,0,1,0-1.42l6-6a1,1,0,0,1,1.42,1.42l-6,6A1,1,0,0,1,11,36Z"/><path class="cls-1" d="M16,19a1,1,0,0,1-.5-.13l-7-4a1,1,0,1,1,1-1.74l7,4A1,1,0,0,1,16,19Z"/><path class="cls-1" d="M34,36a1,1,0,0,1-.77-.36l-5-6a1,1,0,0,1,1.54-1.28l5,6a1,1,0,0,1-.13,1.41A1,1,0,0,1,34,36Z"/></g></g></svg>