<svg xmlns="http://www.w3.org/2000/svg" viewBox="0 0 35 36"><defs><style>.cls-1{fill:none;stroke:#fff;stroke-miterlimit:10;}.cls-2{fill:#fff;}</style></defs><title>Asset 6</title><g id="Layer_2" data-name="Layer 2"><g id="Layer_1-2" data-name="Layer 1"><rect class="cls-1" x="0.5" y="23.7" width="4" height="11.79"/><rect class="cls-1" x="8" y="21.41" width="4" height="14.08"/><rect class="cls-1" x="15.5" y="16.95" width="4" height="18.54"/><rect class="cls-1" x="23" y="20.04" width="4" height="15.46"/><rect class="cls-1" x="30.5" y="13.45" width="4" height="22.04"/><path class="cls-2" d="M4.87,15.75a2.53,2.53,0,0,0-.49-.86A2.5,2.5,0,1,0,5,16.54,2.56,2.56,0,0,0,4.87,15.75ZM2.5,18a1.5,1.5,0,0,1,0-3,1.41,1.41,0,0,1,1,.37,1.4,1.4,0,0,1,.5.86,1.24,1.24,0,0,1,0,.27A1.5,1.5,0,0,1,2.5,18Z"/><path class="cls-2" d="M12.18,11A2.53,2.53,0,0,0,10,9.75a2.51,2.51,0,0,0-2.5,2.5,2.28,2.28,0,0,0,.13.78,2.15,2.15,0,0,0,.5.85,2.45,2.45,0,0,0,1.87.87A2.5,2.5,0,0,0,12.18,11ZM10,13.75a1.53,1.53,0,0,1-1.47-1.23,1.24,1.24,0,0,1,0-.27,1.5,1.5,0,0,1,1.5-1.5,1.33,1.33,0,0,1,.74.21,1.39,1.39,0,0,1,.65.74,1.46,1.46,0,0,1,.11.55A1.5,1.5,0,0,1,10,13.75Z"/><path class="cls-2" d="M16.67,4a2.5,2.5,0,0,0-2.18,3.72A2.53,2.53,0,0,0,16.67,9a2.52,2.52,0,0,0,2.27-1.45,2.47,2.47,0,0,0,.23-1V6.5A2.5,2.5,0,0,0,16.67,4Zm1.25,3.31A1.48,1.48,0,0,1,16.67,8a1.33,1.33,0,0,1-.74-.21,1.52,1.52,0,0,1-.76-1.29,1.49,1.49,0,0,1,3-.17.47.47,0,0,1,0,.17A1.41,1.41,0,0,1,17.92,7.31Z"/><path class="cls-2" d="M26.27,7.1a2.55,2.55,0,0,0-.64-.78,2.45,2.45,0,0,0-1.58-.57,2.49,2.49,0,0,0-2.26,1.44,2.32,2.32,0,0,0-.24,1v.08a2.5,2.5,0,0,0,5,0A2.47,2.47,0,0,0,26.27,7.1ZM24.05,9.75a1.49,1.49,0,0,1-1.48-1.34.44.44,0,0,1,0-.16,1.44,1.44,0,0,1,.25-.82,1.47,1.47,0,0,1,1.25-.68,1.39,1.39,0,0,1,.77.23,1.36,1.36,0,0,1,.64.77,1.39,1.39,0,0,1,.09.5A1.51,1.51,0,0,1,24.05,9.75Z"/><path class="cls-2" d="M31.17,0a2.5,2.5,0,0,0-2.5,2.5A2.44,2.44,0,0,0,29,3.65a2.48,2.48,0,0,0,.63.77A2.43,2.43,0,0,0,31.17,5a2.5,2.5,0,0,0,0-5Zm0,4a1.38,1.38,0,0,1-.78-.23A1.4,1.4,0,0,1,29.76,3a1.33,1.33,0,0,1-.09-.49A1.5,1.5,0,1,1,31.17,4Z"/><path class="cls-2" d="M7.63,13a2.15,2.15,0,0,0,.5.85L4.87,15.75a2.53,2.53,0,0,0-.49-.86Z"/><path class="cls-2" d="M15.14,8.47l-3,2.56a2.47,2.47,0,0,0-.65-.75l3-2.56A2.47,2.47,0,0,0,15.14,8.47Z"/><path class="cls-2" d="M19.17,6.57l2.62.62a2.32,2.32,0,0,0-.24,1l-2.61-.62A2.47,2.47,0,0,0,19.17,6.57Z"/><path class="cls-2" d="M29.58,4.42,26.27,7.1a2.55,2.55,0,0,0-.64-.78L29,3.65A2.48,2.48,0,0,0,29.58,4.42Z"/></g></g></svg>