<svg xmlns="http://www.w3.org/2000/svg" viewBox="0 0 44 44"><defs><style>.cls-1{fill:#fff;}</style></defs><title>performance</title><g id="Layer_2" data-name="Layer 2"><g id="report-up"><path class="cls-1" d="M.68,24.69a.66.66,0,0,1-.4-.13.64.64,0,0,1-.15-.92l10-13.26,6.74,7.21L26.68.49A.69.69,0,0,1,27.6.23a.67.67,0,0,1,.27.91L17.18,19.85l-6.9-7.38-9,12A.67.67,0,0,1,.68,24.69Z"/><path class="cls-1" d="M29.32,8.77a.68.68,0,0,1-.66-.49L26.79,1.63,20,3.44A.69.69,0,0,1,19.11,3a.68.68,0,0,1,.48-.82L27.75,0,30,7.94a.66.66,0,0,1-.48.81A.55.55,0,0,1,29.32,8.77Z"/></g><g id="progress-bar-1"><path class="cls-1" d="M41,44H37a3,3,0,0,1-3-2.92v-36a3,3,0,0,1,3-2.92h4a3,3,0,0,1,3,2.92v36A3,3,0,0,1,41,44ZM37,4.11a1,1,0,0,0-1,1v36a1,1,0,0,0,1,1h4a1,1,0,0,0,1-1v-36a1,1,0,0,0-1-1Z"/><path class="cls-1" d="M28,44H24a3,3,0,0,1-3-2.92V22.6a3,3,0,0,1,3-2.92h4a3,3,0,0,1,3,2.92V41.08A3,3,0,0,1,28,44ZM24,21.62a1,1,0,0,0-1,1V41.08a1,1,0,0,0,1,1h4a1,1,0,0,0,1-1V22.6a1,1,0,0,0-1-1Z"/><path class="cls-1" d="M15,44H11a3,3,0,0,1-3-2.92V34.27a3,3,0,0,1,3-2.92h4a3,3,0,0,1,3,2.92v6.81A3,3,0,0,1,15,44ZM11,33.3a1,1,0,0,0-1,1v6.81a1,1,0,0,0,1,1h4a1,1,0,0,0,1-1V34.27a1,1,0,0,0-1-1Z"/></g></g></svg>