<svg xmlns="http://www.w3.org/2000/svg" viewBox="0 0 32 26.19"><style>#basket{fill:#fff;}</style><title>ecommerce</title><g id="Layer_2" data-name="Layer 2"><g id="basket"><path class="cls-1" d="M31,9.19H28a2,2,0,0,1,.21.88,2,2,0,0,1-.58,1.41l-1.13,1.13a2,2,0,0,1-2.82,0L20.24,9.19H10.76L7.34,12.61a2,2,0,0,1-2.82,0L3.39,11.48a2,2,0,0,1-.58-1.41A2,2,0,0,1,3,9.19H1a1,1,0,0,0-1,1v2a1,1,0,0,0,1,1H2l2.61,11.3a2.19,2.19,0,0,0,2.14,1.7h17.5a2.19,2.19,0,0,0,2.14-1.7L29,13.19h2a1,1,0,0,0,1-1v-2A1,1,0,0,0,31,9.19Zm-23,11H6v-2H8Zm0-4H6v-2H8Zm4,8H10v-2h2Zm0-4H10v-2h2Zm0-4H10v-2h2Zm4,8H14v-2h2Zm0-4H14v-2h2Zm0-4H14v-2h2Zm4,8H18v-2h2Zm0-4H18v-2h2Zm0-4H18v-2h2Zm4,4H22v-2h2Zm0-4H22v-2h2Z"/><path class="cls-1"  d="M5.22,11.9a1,1,0,0,0,1.42,0L15.5,3l8.86,8.86a1,1,0,0,0,1.42,0l1.12-1.12a1,1,0,0,0,0-1.42L17.83.29a1,1,0,0,0-1.42,0l-.91.92L14.59.29a1,1,0,0,0-1.42,0L4.1,9.36a1,1,0,0,0,0,1.42ZM25,9.19a1,1,0,1,1-1,1A1,1,0,0,1,25,9.19Zm-19,0a1,1,0,1,1-1,1A1,1,0,0,1,6,9.19Z"/></g></g></svg>