<svg xmlns="http://www.w3.org/2000/svg" viewBox="0 0 30.86 22.89"><defs><style>.cls-1{fill:#000;}</style></defs><title>Asset 2</title><g id="Layer_2" data-name="Layer 2"><g id="mail"><path class="cls-1" d="M10.12,12.07a.92.92,0,0,0,0-1.35l-9.65-9A3.35,3.35,0,0,0,0,3.43v16a3.44,3.44,0,0,0,.42,1.66Z"/><path class="cls-1" d="M19.68,13.15a1.09,1.09,0,0,0-1.45,0l-2,1.9a1.09,1.09,0,0,1-1.45,0l-2.13-2a1.09,1.09,0,0,0-1.45,0L1.36,22.2a3.4,3.4,0,0,0,2.05.69h24a3.32,3.32,0,0,0,2-.63Z"/><path class="cls-1" d="M30.44,1.78l-9.71,9a.92.92,0,0,0,0,1.35l9.65,9a3.52,3.52,0,0,0,.48-1.76v-16A3.4,3.4,0,0,0,30.44,1.78Z"/><path class="cls-1" d="M14.75,13.09a1.09,1.09,0,0,0,1.45,0L29.5.69A3.4,3.4,0,0,0,27.45,0h-24a3.32,3.32,0,0,0-2,.63Z"/></g></g></svg>