<svg xmlns="http://www.w3.org/2000/svg" viewBox="0 0 30.8 28.68"><style>#grill-cutlery{fill:#fff;}</style><title>food</title><g id="Layer_2" data-name="Layer 2"><g id="grill-cutlery"><path d="M20.81,11.75a3.66,3.66,0,0,0,1.84.5,3.71,3.71,0,0,0,2.66-1.1l5.34-5.34a.49.49,0,0,0-.7-.7l-5.34,5.34A2.76,2.76,0,0,1,20.7,6.54L26,1.2a.51.51,0,0,0,0-.71.51.51,0,0,0-.71,0L20,5.83a3.76,3.76,0,0,0-.6,4.51l-3.81,3.81-3.81-3.81,1.68-1.67a1.5,1.5,0,0,0,0-2.1L7.29.42A1.51,1.51,0,0,0,5.2.42L.43,5.18a1.5,1.5,0,0,0,0,2.1l6.16,6.15a1.48,1.48,0,0,0,2.09,0l1.68-1.68,3.81,3.81L9.72,20a2.25,2.25,0,0,0-2.3.53L3.13,24.83A2.25,2.25,0,0,0,6.31,28l4.29-4.29a2.24,2.24,0,0,0,.53-2.31L15.58,17,20,21.42a2.17,2.17,0,0,0-.13.71,2.29,2.29,0,0,0,.66,1.6L24.85,28a2.27,2.27,0,0,0,1.59.66A2.26,2.26,0,0,0,28,24.83l-4.29-4.29A2.27,2.27,0,0,0,21.44,20L17,15.56ZM8,12.72a.48.48,0,0,1-.68,0L1.14,6.57a.48.48,0,0,1,0-.68L5.91,1.13A.48.48,0,0,1,6.25,1a.47.47,0,0,1,.33.14l6.16,6.15a.48.48,0,0,1,0,.68Z"/><path d="M4.9,4.17a.51.51,0,0,0-.71,0,.5.5,0,0,0,0,.71L9,9.68a.52.52,0,0,0,.35.14.54.54,0,0,0,.36-.14A.51.51,0,0,0,9.7,9Z"/><path d="M6.37,2.7a.49.49,0,1,0-.7.7l4.79,4.8a.51.51,0,0,0,.36.15.5.5,0,0,0,.35-.15.5.5,0,0,0,0-.71Z"/><path d="M3.42,5.65a.5.5,0,0,0-.71,0,.5.5,0,0,0,0,.7l4.8,4.8a.5.5,0,0,0,.35.15.51.51,0,0,0,.36-.15.51.51,0,0,0,0-.71Z"/></g></g></svg>