<svg xmlns="http://www.w3.org/2000/svg" viewBox="0 0 400 180.88"><defs><style>.cls-1,.cls-2{fill:none;stroke:#fff;stroke-miterlimit:10;}.cls-2{stroke-width:0.75px;}.cls-3{fill:#fff;}</style></defs><title>Asset 2</title><g id="Layer_2" data-name="Layer 2"><g id="Layer_1-2" data-name="Layer 1"><circle class="cls-1" cx="330.32" cy="78.46" r="9.48"/><rect class="cls-1" x="300.32" y="0.5" width="60" height="155.9"/><line class="cls-1" x1="315.32" y1="105" x2="345.32" y2="105"/><line class="cls-1" x1="315.32" y1="115.11" x2="345.32" y2="115.11"/><line class="cls-1" x1="315.32" y1="125.22" x2="345.32" y2="125.22"/><line class="cls-1" x1="315.32" y1="135.33" x2="345.32" y2="135.33"/><line class="cls-1" x1="315.32" y1="145.44" x2="345.32" y2="145.44"/><circle class="cls-2" cx="317.63" cy="42.31" r="2.31"/><circle class="cls-2" cx="330.32" cy="42.31" r="2.31"/><circle class="cls-2" cx="343.01" cy="42.31" r="2.31"/><rect class="cls-2" x="315.32" y="13.5" width="13" height="5"/><rect class="cls-3" x="316.82" y="16.5" width="10" height="1"/><rect class="cls-2" x="332.32" y="13.5" width="13" height="5"/><rect class="cls-3" x="333.82" y="16.5" width="10" height="1"/><polyline class="cls-2" points="300.32 147.44 290.33 147.44 290.33 180.5 290.33 180.5 0 180.5"/><polyline class="cls-2" points="360.32 147.44 370.31 147.44 370.31 180.5 370.31 180.5 400 180.5"/></g></g></svg>