<svg xmlns="http://www.w3.org/2000/svg" viewBox="0 0 43 46.47"><defs><style>.cls-1{fill:#490a29;}</style></defs><title>Asset 2</title><g id="Layer_2" data-name="Layer 2"><g id="Layer_1-2" data-name="Layer 1"><path class="cls-1" d="M39.93,3.07a10.52,10.52,0,0,0-14.85,0L1.69,26.47a1,1,0,0,0,0,1.41,1,1,0,0,0,1.41,0L26.49,4.48a8.5,8.5,0,1,1,12,12L12.33,42.69a6,6,0,1,1-8.55-8.56L28.61,9.42a3.51,3.51,0,0,1,5,5l-21,21A1,1,0,1,0,14,36.78l21-21A5.5,5.5,0,0,0,35,8,5.52,5.52,0,0,0,27.2,8L2.37,32.71a8.05,8.05,0,1,0,11.37,11.4L39.93,17.92A10.52,10.52,0,0,0,39.93,3.07Z"/></g></g></svg>