<svg xmlns="http://www.w3.org/2000/svg" viewBox="0 0 37 43"><defs><style>.cls-1{fill:#490a29;}</style></defs><title>Asset 3</title><g id="Layer_2" data-name="Layer 2"><g id="Layer_1-2" data-name="Layer 1"><path class="cls-1" d="M37,32.74l-2.59-9.53A3,3,0,0,0,31.47,21H24.36a14.76,14.76,0,0,1,3-8.66A2.82,2.82,0,0,0,29,10V4c0-2.75-5.18-4-10-4S9,1.25,9,4v6a2.72,2.72,0,0,0,1.5,2.24A18.65,18.65,0,0,1,13.32,21H6.4a3,3,0,0,0-2.82,2L.06,32.66A1,1,0,0,0,0,33v6a4,4,0,0,0,4,4H33a4,4,0,0,0,4-4V33A.75.75,0,0,0,37,32.74ZM11,9.62V6.52A18.87,18.87,0,0,0,19,8a18.87,18.87,0,0,0,8-1.48V9.83a11.81,11.81,0,0,0-.94.93A17,17,0,0,1,19,12a16.75,16.75,0,0,1-7.1-1.26C11.62,10.36,11.32,10,11,9.62ZM19,2c5.25,0,8,1.49,8,2s-2.75,2-8,2-8-1.49-8-2S13.75,2,19,2Zm0,12a24.92,24.92,0,0,0,5.2-.52C21,19.69,22.73,27.92,23,29.11a4,4,0,0,1-8,0c.2-1.08,1.54-9.06-1.55-15.7A24.08,24.08,0,0,0,19,14ZM35,39a2,2,0,0,1-2,2H4a2,2,0,0,1-2-2V34H5a1,1,0,0,0,0-2H2.43l3-8.34A1,1,0,0,1,6.4,23h7A30.42,30.42,0,0,1,13,28.8a1.36,1.36,0,0,0,0,.2,6,6,0,0,0,12,0,1,1,0,0,0,0-.24A29.79,29.79,0,0,1,24.32,23h7.15a1,1,0,0,1,1,.74L34.69,32H33a1,1,0,0,0,0,2h2Z"/></g></g></svg>