<svg xmlns="http://www.w3.org/2000/svg" viewBox="0 0 30 50.01"><defs><style>.cls-1{fill:#490a29;}</style></defs><title>Asset 1</title><g id="Layer_2" data-name="Layer 2"><g id="Layer_1-2" data-name="Layer 1"><path class="cls-1" d="M25.36,4.15A15,15,0,1,0,4.82,26a15.23,15.23,0,0,1,4.59,7.64l.34,1.41a.94.94,0,0,0-.45.24A1,1,0,0,0,9,36v5a3.87,3.87,0,0,0,.57,2H8a1,1,0,0,0-.7.29A1,1,0,0,0,7,44v5a1,1,0,0,0,2,0V45H21v4a1,1,0,0,0,2,0V44a1,1,0,0,0-1-1H20.4a3.78,3.78,0,0,0,.6-2V36a.94.94,0,0,0-.74-.95l.33-1.4A15.63,15.63,0,0,1,25.25,26a15,15,0,0,0,.11-21.8ZM19,41a1.91,1.91,0,0,1-1.87,1.87H12.87a1.82,1.82,0,0,1-1.32-.55A1.86,1.86,0,0,1,11,41V37h8Zm4.88-16.52a17.53,17.53,0,0,0-5.23,8.7L18.21,35H11.79l-.43-1.82a17.3,17.3,0,0,0-5.18-8.65A13,13,0,0,1,14.37,2,13,13,0,0,1,28,15,12.83,12.83,0,0,1,23.88,24.49Z"/></g></g></svg>