<svg xmlns="http://www.w3.org/2000/svg" viewBox="0 0 32 32"><style>#microscope{fill:#fff;}</style><title>medical</title><g id="Layer_2" data-name="Layer 2"><g id="microscope"><path d="M31,28H27.92A12,12,0,0,0,22.21,8.45l.08-.09a4,4,0,0,0,1.17-2.82,4.15,4.15,0,0,0-.17-1.11,1.75,1.75,0,0,0,.42-.31l.7-.71a2,2,0,0,0,0-2.82,2,2,0,0,0-2.82,0l-.71.7a1.75,1.75,0,0,0-.31.42,4,4,0,0,0-3.93,1L10.27,9.07h0a1,1,0,0,0-1.41,0,1,1,0,0,0,0,1.42l5.65,5.65a1,1,0,0,0,.71.3,1,1,0,0,0,.71-1.71L18.69,12A3,3,0,0,0,19,12a8,8,0,0,1,0,16H10V24h4a1,1,0,0,0,0-2H2a1,1,0,0,0,0,2H6v4H1a1,1,0,0,0-1,1v2a1,1,0,0,0,1,1H31a1,1,0,0,0,1-1V29A1,1,0,0,0,31,28Z"/></g></g></svg>