<svg xmlns="http://www.w3.org/2000/svg" viewBox="0 0 27 25"><style>#briefcase{fill:#fff;}</style><title>office</title><g id="Layer_2" data-name="Layer 2"><g id="briefcase"><path d="M22,12a1,1,0,0,1-1,1H20a1,1,0,0,1-1-1V11H8v1a1,1,0,0,1-1,1H6a1,1,0,0,1-1-1V11H0V22a3,3,0,0,0,3,3H24a3,3,0,0,0,3-3V11H22Z"/><path d="M24,5H22V3a3,3,0,0,0-3-3H8A3,3,0,0,0,5,3V5H3A3,3,0,0,0,0,8v2H5V9A1,1,0,0,1,6,8H7A1,1,0,0,1,8,9v1H19V9a1,1,0,0,1,1-1h1a1,1,0,0,1,1,1v1h5V8A3,3,0,0,0,24,5ZM20,5H7V3A1,1,0,0,1,8,2H19a1,1,0,0,1,1,1Z"/></g></g></svg>