<svg xmlns="http://www.w3.org/2000/svg" viewBox="0 0 18.81 26.94"><defs><style>.cls-1{fill:#000;}</style></defs><title>Asset 2</title><g id="Layer_2" data-name="Layer 2"><g id="phone-classic"><path id="phone" class="cls-1" d="M18.6,23,15.31,19a2.17,2.17,0,0,0-2.81-.64L11.4,19a1.57,1.57,0,0,0-.84.84,1.06,1.06,0,0,1-1.76.31,32.92,32.92,0,0,1-3.58-5.52,14,14,0,0,1-1.3-4c-.09-.54.19-1.3,1.28-1.25A1.64,1.64,0,0,0,6.38,9.2l1.11-.55A2.18,2.18,0,0,0,8.61,6L7.34,1A1.88,1.88,0,0,0,4.83.2L2.44,1.4a2.69,2.69,0,0,0-1,1.13c-2,3.4-1.89,8.77.67,13.76.1.19,4,9.75,11.86,10.62a2.55,2.55,0,0,0,1.52-.2l2.37-1.24A1.87,1.87,0,0,0,18.6,23Z"/></g></g></svg>