<svg xmlns="http://www.w3.org/2000/svg" viewBox="0 0 30 23"><style>#photography{fill:#fff;}</style><title>photography</title><g id="Layer_2" data-name="Layer 2"><g id="photography"><path d="M28,2.17V2a1,1,0,0,0-1-1H26a1,1,0,0,0-1-1H23a1,1,0,0,0-1,1H21a1,1,0,0,0-1,1H10A1,1,0,0,0,9,1H4A1,1,0,0,0,3,2H3A3,3,0,0,0,0,5V20a3,3,0,0,0,3,3H27a3,3,0,0,0,3-3V5A3,3,0,0,0,28,2.17ZM7,7.87A1.12,1.12,0,0,1,5.87,9H4.13A1.12,1.12,0,0,1,3,7.87V6.13A1.12,1.12,0,0,1,4.13,5H5.87A1.12,1.12,0,0,1,7,6.13ZM16,20a7,7,0,1,1,7-7A7,7,0,0,1,16,20Z"/><path d="M16,8a5,5,0,1,0,5,5A5,5,0,0,0,16,8Zm0,8a3,3,0,1,1,3-3A3,3,0,0,1,16,16Z"/></g></g></svg>