<svg xmlns="http://www.w3.org/2000/svg" viewBox="0 0 29.78 23.94"><style>#graduation-hat{fill:#fff;}</style><title>school</title><g id="Layer_2" data-name="Layer 2"><g id="graduation-hat"><path d="M29.28,6.14,19,1a9,9,0,0,0-8,0L.5,6.14a.9.9,0,0,0,0,1.61L11,13a8.88,8.88,0,0,0,4,.94,9,9,0,0,0,4-1l.9-.45v-.07L15.63,8.87a4.54,4.54,0,0,1-.75.07c-1.66,0-3-.89-3-2s1.34-2,3-2,3,.9,3,2a1.54,1.54,0,0,1-.34.92l4.34,3.61,7.4-3.72a.91.91,0,0,0,.5-.81A.88.88,0,0,0,29.28,6.14Z"/><path d="M21.88,15.22a2,2,0,0,1,1,1.72v3c0,.56-.9,1-2,1s-2-.44-2-1v-3a2,2,0,0,1,1-1.72V13.6l-.46.23a9.93,9.93,0,0,1-8.89,0L3.88,10.54v8.4c0,2.77,4.92,5,11,5s11-2.23,11-5V10.58l-4,2Z"/></g></g></svg>