<svg xmlns="http://www.w3.org/2000/svg" viewBox="0 0 26 28"><style>#protection{fill:#fff;}</style><title>security</title><g id="Layer_2" data-name="Layer 2"><g id="protection"><path d="M13,0C5.82,0,0,.67,0,8.4,0,21,11.7,28,13,28S26,21,26,8.4C26,.67,20.18,0,13,0Zm0,25.85c-1.1,0-11-5.93-11-16.59C2,2.72,6.92,2.15,13,2.15s11,.57,11,7.11C24,19.92,14.1,25.85,13,25.85Z"/><path d="M3,9.26a15,15,0,0,0,.13,1.93l8-8C5.64,3.38,3,4.57,3,9.26Z"/><path d="M14,3.16,3.62,13.53c.1.37.22.74.34,1.09L15.38,3.2Z"/><path d="M22,5.45,7.23,20.19A16.67,16.67,0,0,0,13,24.83c1.68-.51,10-6.21,10-15.57A6.07,6.07,0,0,0,22,5.45Z"/></g></g></svg>