<svg xmlns="http://www.w3.org/2000/svg" viewBox="0 0 19.92 20.21"><defs><style>.cls-1{fill:#000;}</style></defs><title>Asset 1</title><g id="Layer_2" data-name="Layer 2"><g id="Layer_1-2" data-name="Layer 1"><path class="cls-1" d="M19.35,12.25a9.81,9.81,0,0,0,.22-2,9.5,9.5,0,0,0-9.5-9.5A8.75,8.75,0,0,0,8.44.85,5.43,5.43,0,0,0,5.51,0,5.51,5.51,0,0,0,.76,8.3a9.24,9.24,0,0,0-.2,1.91,9.5,9.5,0,0,0,9.51,9.5,9,9,0,0,0,1.73-.16,5.51,5.51,0,0,0,8.12-4.85A5.59,5.59,0,0,0,19.35,12.25Zm-4.41,2.5A4.35,4.35,0,0,1,13,16.21a7.69,7.69,0,0,1-3,.53A7.14,7.14,0,0,1,6.64,16a4.39,4.39,0,0,1-1.57-1.39,3,3,0,0,1-.6-1.71,1.2,1.2,0,0,1,.39-.9,1.41,1.41,0,0,1,1-.37,1.28,1.28,0,0,1,.84.29,2.16,2.16,0,0,1,.56.82,5,5,0,0,0,.54,1,2.12,2.12,0,0,0,.8.62,3.31,3.31,0,0,0,1.38.25,3.34,3.34,0,0,0,1.91-.5,1.38,1.38,0,0,0,.71-1.19,1.16,1.16,0,0,0-.37-.9,2.66,2.66,0,0,0-1-.56c-.44-.13-1-.28-1.75-.43A13.53,13.53,0,0,1,7,10.26,4,4,0,0,1,5.34,9.07a3,3,0,0,1-.61-1.9,3.09,3.09,0,0,1,.64-1.93A4.14,4.14,0,0,1,7.21,4,8.13,8.13,0,0,1,10,3.52a7.32,7.32,0,0,1,2.22.3,4.71,4.71,0,0,1,1.57.78,3.16,3.16,0,0,1,.92,1A2.24,2.24,0,0,1,15,6.72,1.35,1.35,0,0,1,13.64,8a1.17,1.17,0,0,1-.81-.25A2.86,2.86,0,0,1,12.26,7a3.26,3.26,0,0,0-.85-1,2.72,2.72,0,0,0-1.59-.37A3,3,0,0,0,8.17,6a1.1,1.1,0,0,0-.59.91.85.85,0,0,0,.19.55,1.71,1.71,0,0,0,.57.43,3.83,3.83,0,0,0,.77.3l1.31.32c.77.17,1.48.35,2.1.55a6.85,6.85,0,0,1,1.63.75A3.22,3.22,0,0,1,15.22,11a3.44,3.44,0,0,1,.38,1.67A3.6,3.6,0,0,1,14.94,14.75Z"/></g></g></svg>