<svg xmlns="http://www.w3.org/2000/svg" viewBox="0 0 400 180.97"><defs><style>.cls-1,.cls-2,.cls-3{fill:none;stroke:#fff;}.cls-1,.cls-3{stroke-miterlimit:10;}.cls-2{stroke-linejoin:round;}.cls-3{stroke-width:0.75px;}</style></defs><title>Asset 3</title><g id="Layer_2" data-name="Layer 2"><g id="Layer_1-2" data-name="Layer 1"><path class="cls-1" d="M102.5,70.64c0,28.17-10.7,53-26.93,67.43h0c-1,.9-2,1.76-3.06,2.56-1-.8-2.06-1.66-3.06-2.56h0C53.2,123.61,42.5,98.81,42.5,70.64c0-29.92,12.07-56,30-70C90.43,14.61,102.5,40.72,102.5,70.64Z"/><polyline class="cls-2" points="0 180.47 42.49 180.47 64.08 132.71"/><line class="cls-1" x1="72.15" y1="148.47" x2="72.15" y2="180.47"/><line class="cls-1" x1="84.15" y1="157" x2="84.15" y2="170"/><line class="cls-1" x1="60.81" y1="157" x2="60.81" y2="170"/><circle class="cls-1" cx="72.5" cy="78.42" r="9.48"/><polyline class="cls-3" points="400 180.47 102.51 180.47 80.75 132.88"/><path class="cls-3" d="M55.19,23.06a44,44,0,0,0,17.33,3.53,44.29,44.29,0,0,0,17.29-3.53"/></g></g></svg>