<svg xmlns="http://www.w3.org/2000/svg" viewBox="0 0 37 46"><style>#Layer_1-2{fill:#ffffff;}</style><title>brandd</title><g id="Layer_2" data-name="Layer 2"><g id="Layer_1-2" data-name="Layer 1"><path d="M19,8C14.18,8,9,6.75,9,4s5.18-4,10-4S29,1.25,29,4,23.82,8,19,8Zm0-6c-5.25,0-8,1.49-8,2s2.75,2,8,2,8-1.49,8-2S24.25,2,19,2Z"/><path d="M19,14c-4.82,0-10-1.25-10-4V4h2v6c0,.51,2.75,2,8,2s8-1.49,8-2V4h2v6C29,12.75,23.82,14,19,14Z"/><path d="M19,35a6,6,0,0,1-6-6,1.36,1.36,0,0,1,0-.2c0-.11,2.25-11.71-3.75-18.12l1.46-1.36c6.46,6.89,4.52,18.45,4.27,19.77a4,4,0,0,0,8,0c-.33-1.45-2.82-13.46,4.14-19.41l1.3,1.52c-6.33,5.41-3.5,17.42-3.47,17.54A1,1,0,0,1,25,29,6,6,0,0,1,19,35Z"/><path d="M33,43H4a4,4,0,0,1-4-4V33a1,1,0,0,1,.06-.34L3.58,23A3,3,0,0,1,6.4,21H14v2H6.4a1,1,0,0,0-.94.66L2,33.18V39a2,2,0,0,0,2,2H33a2,2,0,0,0,2-2V33.13l-2.56-9.39a1,1,0,0,0-1-.74H24V21h7.47a3,3,0,0,1,2.9,2.21L37,32.74A.75.75,0,0,1,37,33v6A4,4,0,0,1,33,43Z"/><path d="M30,46H8a1,1,0,0,1,0-2H30a1,1,0,0,1,0,2Z"/><path d="M5,34H2a1,1,0,0,1,0-2H5a1,1,0,0,1,0,2Z"/><path d="M35,34H33a1,1,0,0,1,0-2h2a1,1,0,0,1,0,2Z"/></g></g></svg>