<svg xmlns="http://www.w3.org/2000/svg" viewBox="0 0 40.3 44.39"><defs><style>.cls-1{fill:#ffffff;}</style></defs><title>customization</title><g id="Layer_2" data-name="Layer 2"><g id="storager-refresh"><path class="cls-1" d="M18,12.39c-8.94,0-18-2.13-18-6.2S9.06,0,18,0,36,2.13,36,6.19,26.94,12.39,18,12.39ZM18,2C8.23,2,2,4.48,2,6.19s6.23,4.2,16,4.2S34,7.9,34,6.19,27.77,2,18,2Z"/><path class="cls-1" d="M18,20.39c-8.94,0-18-2.13-18-6.2a1,1,0,0,1,2,0c0,1.71,6.23,4.2,16,4.2s16-2.49,16-4.2a1,1,0,1,1,2,0C36,18.26,26.94,20.39,18,20.39Z"/><path class="cls-1" d="M18,28.39c-8.94,0-18-2.13-18-6.2a1,1,0,0,1,2,0c0,1.71,6.23,4.2,16,4.2a1,1,0,0,1,0,2Z"/><path class="cls-1" d="M18,36.39c-8.94,0-18-2.13-18-6.2a1,1,0,0,1,2,0c0,1.71,6.23,4.2,16,4.2a1,1,0,0,1,0,2Z"/><path class="cls-1" d="M18,44.39c-8.94,0-18-2.13-18-6.2a1,1,0,0,1,2,0c0,1.71,6.23,4.2,16,4.2a1,1,0,0,1,0,2Z"/><path class="cls-1" d="M1,40a1,1,0,0,1-1-1V6A1,1,0,0,1,2,6V39A1,1,0,0,1,1,40Z"/><path class="cls-1" d="M35,23a1,1,0,0,1-1-1V6a1,1,0,0,1,2,0V22A1,1,0,0,1,35,23Z"/><path class="cls-1" d="M31.55,43.29a8.75,8.75,0,0,1-8.31-6,1,1,0,0,1,.64-1.26,1,1,0,0,1,1.26.63,6.75,6.75,0,1,0,.93-6.09,1,1,0,0,1-1.62-1.18,8.75,8.75,0,1,1,7.1,13.88Z"/><path class="cls-1" d="M22,41a.93.93,0,0,1-.45-.11,1,1,0,0,1-.44-1.34l2.35-4.72L28.24,36A1,1,0,1,1,27.76,38l-3.22-.8-1.65,3.28A1,1,0,0,1,22,41Z"/></g></g></svg>