<svg xmlns="http://www.w3.org/2000/svg" viewBox="0 0 45 45"><defs><style>.cls-1{fill:#490a29;}</style></defs><title>optimization</title><g id="Layer_2" data-name="Layer 2"><g id="time"><path class="cls-1" d="M22.5,45A22.5,22.5,0,1,1,45,22.5,22.52,22.52,0,0,1,22.5,45Zm0-43A20.5,20.5,0,1,0,43,22.5,20.53,20.53,0,0,0,22.5,2Z"/><path class="cls-1" d="M31.5,32.5a1,1,0,0,1-.6-.2l-9.75-7.22a2.81,2.81,0,0,1-.26-4.19,2.88,2.88,0,0,1,4.16.22l7.25,9.8a1,1,0,0,1-.09,1.3A1,1,0,0,1,31.5,32.5ZM22.87,22.07a.8.8,0,0,0-.56.24.81.81,0,0,0-.24.61.83.83,0,0,0,.3.58l4.34,3.21-3.24-4.37A.77.77,0,0,0,22.87,22.07Z"/><path class="cls-1" d="M22.5,5.5a1,1,0,0,1-1-1v-3a1,1,0,0,1,2,0v3A1,1,0,0,1,22.5,5.5Z"/><path class="cls-1" d="M22.5,44.5a1,1,0,0,1-1-1v-3a1,1,0,0,1,2,0v3A1,1,0,0,1,22.5,44.5Z"/><path class="cls-1" d="M43.5,23.5h-3a1,1,0,0,1,0-2h3a1,1,0,0,1,0,2Z"/><path class="cls-1" d="M4.5,23.5h-3a1,1,0,0,1,0-2h3a1,1,0,0,1,0,2Z"/></g></g></svg>