<svg xmlns="http://www.w3.org/2000/svg" viewBox="0 0 44 44"><defs><style>.cls-1{fill:#ffffff;}</style></defs><title>Asset 1</title><g id="Layer_2" data-name="Layer 2"><g id="focus"><path class="cls-1" d="M41,44H34a1,1,0,0,1,0-2h7a1,1,0,0,0,1-1V34a1,1,0,0,1,2,0v7A3,3,0,0,1,41,44Z"/><path class="cls-1" d="M43,11a1,1,0,0,1-1-1V3a1,1,0,0,0-1-1H34a1,1,0,0,1,0-2h7a3,3,0,0,1,3,3v7A1,1,0,0,1,43,11Z"/><path class="cls-1" d="M1,11a1,1,0,0,1-1-1V3A3,3,0,0,1,3,0h7a1,1,0,0,1,0,2H3A1,1,0,0,0,2,3v7A1,1,0,0,1,1,11Z"/><path class="cls-1" d="M10,44H3a3,3,0,0,1-3-3V34a1,1,0,0,1,2,0v7a1,1,0,0,0,1,1h7a1,1,0,0,1,0,2Z"/><path class="cls-1" d="M22,36A14,14,0,1,1,36,22,14,14,0,0,1,22,36Zm0-26A12,12,0,1,0,34,22,12,12,0,0,0,22,10Z"/><path class="cls-1" d="M22,16a1,1,0,0,1-1-1V4a1,1,0,0,1,2,0V15A1,1,0,0,1,22,16Z"/><path class="cls-1" d="M22,41a1,1,0,0,1-1-1V29a1,1,0,0,1,2,0V40A1,1,0,0,1,22,41Z"/><path class="cls-1" d="M40,23H29a1,1,0,0,1,0-2H40a1,1,0,0,1,0,2Z"/><path class="cls-1" d="M15,23H4a1,1,0,0,1,0-2H15a1,1,0,0,1,0,2Z"/></g></g></svg>