<svg xmlns="http://www.w3.org/2000/svg" viewBox="0 0 20.41 16.59"><defs><style>.cls-1{fill:#000;}</style></defs><title>Asset 2</title><g id="Layer_2" data-name="Layer 2"><g id="Layer_1-2" data-name="Layer 1"><path class="cls-1" d="M20.41,2a8.05,8.05,0,0,1-2.4.66A4.22,4.22,0,0,0,19.85.31a8.15,8.15,0,0,1-2.66,1A4.19,4.19,0,0,0,10,4.19a4.19,4.19,0,0,0,.1.95A11.89,11.89,0,0,1,1.42.77a4.18,4.18,0,0,0,1.3,5.59,4.1,4.1,0,0,1-1.9-.53v.06A4.18,4.18,0,0,0,4.18,10a4,4,0,0,1-1.1.15,5,5,0,0,1-.79-.07A4.18,4.18,0,0,0,6.2,13,8.36,8.36,0,0,1,1,14.77a8.26,8.26,0,0,1-1-.06,11.82,11.82,0,0,0,6.42,1.88A11.84,11.84,0,0,0,18.34,4.67c0-.18,0-.36,0-.54A8.59,8.59,0,0,0,20.41,2Z"/></g></g></svg>